<?xml version="1.0" encoding="UTF-8" standalone="no"?>
<!DOCTYPE svg PUBLIC "-//W3C//DTD SVG 1.1//EN" "http://www.w3.org/Graphics/SVG/1.1/DTD/svg11.dtd">
<svg width="100%" height="100%" viewBox="0 0 1024 1024" version="1.1" xmlns="http://www.w3.org/2000/svg" xmlns:xlink="http://www.w3.org/1999/xlink" xml:space="preserve" xmlns:serif="http://www.serif.com/" style="fill-rule:evenodd;clip-rule:evenodd;stroke-miterlimit:1;">
    <g id="Background" transform="matrix(2.63239,0,0,2.63239,-739.702,-821.306)">
        <circle cx="475.5" cy="506.5" r="194.5" style="fill:rgb(255,175,200);"/>
    </g>
    <g id="OuterRing" transform="matrix(2.63239,0,0,2.63239,-739.702,-821.306)">
        <path d="M475.5,312C582.847,312 670,399.153 670,506.5C670,613.847 582.847,701 475.5,701C368.153,701 281,613.847 281,506.5C281,399.153 368.153,312 475.5,312ZM475.5,327.719C574.172,327.719 654.281,407.828 654.281,506.5C654.281,605.172 574.172,685.281 475.5,685.281C376.828,685.281 296.719,605.172 296.719,506.5C296.719,407.828 376.828,327.719 475.5,327.719Z" style="fill:white;fill-opacity:0.5;"/>
    </g>
    <g id="InnerRing" transform="matrix(1.73779,0,0,1.73779,-314.319,-368.19)">
        <path d="M475.5,312C582.847,312 670,399.153 670,506.5C670,613.847 582.847,701 475.5,701C368.153,701 281,613.847 281,506.5C281,399.153 368.153,312 475.5,312ZM475.5,327.719C574.172,327.719 654.281,407.828 654.281,506.5C654.281,605.172 574.172,685.281 475.5,685.281C376.828,685.281 296.719,605.172 296.719,506.5C296.719,407.828 376.828,327.719 475.5,327.719Z" style="fill:white;fill-opacity:0.5;"/>
    </g>
    <g id="BottomText" transform="matrix(1,0,0,1,-190,-215)">
        <g transform="matrix(73.2761,10.3256,-10.3256,73.2761,621.122,1144.94)">
            <path d="M0.458,-0.11C0.474,-0.11 0.487,-0.105 0.498,-0.094C0.509,-0.083 0.514,-0.07 0.514,-0.054C0.514,-0.039 0.509,-0.026 0.498,-0.016C0.487,-0.005 0.474,-0 0.458,-0L0.118,-0C0.101,-0 0.087,-0.005 0.077,-0.016C0.067,-0.027 0.062,-0.04 0.062,-0.057C0.062,-0.074 0.068,-0.088 0.08,-0.101L0.298,-0.334C0.323,-0.361 0.342,-0.388 0.357,-0.416C0.371,-0.444 0.378,-0.468 0.378,-0.489C0.378,-0.522 0.368,-0.549 0.349,-0.57C0.33,-0.59 0.304,-0.6 0.272,-0.6C0.259,-0.6 0.246,-0.597 0.233,-0.591C0.22,-0.585 0.207,-0.577 0.195,-0.566C0.182,-0.555 0.171,-0.543 0.16,-0.529C0.152,-0.518 0.144,-0.512 0.136,-0.509C0.128,-0.506 0.121,-0.505 0.114,-0.505C0.099,-0.505 0.086,-0.51 0.074,-0.522C0.061,-0.533 0.055,-0.545 0.055,-0.56C0.055,-0.571 0.059,-0.582 0.067,-0.593C0.074,-0.604 0.084,-0.615 0.095,-0.626C0.112,-0.643 0.13,-0.657 0.151,-0.67C0.172,-0.683 0.193,-0.693 0.215,-0.7C0.237,-0.707 0.258,-0.71 0.279,-0.71C0.324,-0.71 0.363,-0.701 0.396,-0.684C0.429,-0.666 0.454,-0.641 0.472,-0.609C0.49,-0.576 0.499,-0.538 0.499,-0.494C0.499,-0.457 0.488,-0.417 0.467,-0.372C0.445,-0.327 0.416,-0.284 0.379,-0.245L0.244,-0.101L0.233,-0.11L0.458,-0.11Z" style="fill:white;fill-rule:nonzero;"/>
        </g>
        <g transform="matrix(73.9476,2.7853,-2.7853,73.9476,662.241,1150.84)">
            <path d="M0.307,0.01C0.25,0.01 0.201,-0.005 0.162,-0.036C0.122,-0.066 0.092,-0.108 0.071,-0.163C0.05,-0.217 0.04,-0.279 0.04,-0.35C0.04,-0.421 0.05,-0.484 0.071,-0.538C0.092,-0.592 0.122,-0.634 0.162,-0.665C0.201,-0.695 0.25,-0.71 0.307,-0.71C0.364,-0.71 0.413,-0.695 0.453,-0.665C0.492,-0.634 0.522,-0.592 0.543,-0.538C0.564,-0.484 0.574,-0.421 0.574,-0.35C0.574,-0.279 0.564,-0.217 0.543,-0.163C0.522,-0.108 0.492,-0.066 0.453,-0.036C0.413,-0.005 0.364,0.01 0.307,0.01ZM0.307,-0.11C0.335,-0.11 0.359,-0.119 0.38,-0.137C0.4,-0.154 0.416,-0.181 0.427,-0.217C0.438,-0.252 0.444,-0.297 0.444,-0.35C0.444,-0.404 0.438,-0.449 0.427,-0.484C0.416,-0.519 0.4,-0.546 0.38,-0.564C0.359,-0.581 0.335,-0.59 0.307,-0.59C0.28,-0.59 0.256,-0.581 0.235,-0.564C0.214,-0.546 0.198,-0.519 0.187,-0.484C0.176,-0.449 0.17,-0.404 0.17,-0.35C0.17,-0.297 0.176,-0.252 0.187,-0.217C0.198,-0.181 0.214,-0.154 0.235,-0.137C0.256,-0.119 0.28,-0.11 0.307,-0.11Z" style="fill:white;fill-rule:nonzero;"/>
        </g>
        <g transform="matrix(73.8333,-4.96486,4.96486,73.8333,706.876,1152.57)">
            <path d="M0.307,0.01C0.25,0.01 0.201,-0.005 0.162,-0.036C0.122,-0.066 0.092,-0.108 0.071,-0.163C0.05,-0.217 0.04,-0.279 0.04,-0.35C0.04,-0.421 0.05,-0.484 0.071,-0.538C0.092,-0.592 0.122,-0.634 0.162,-0.665C0.201,-0.695 0.25,-0.71 0.307,-0.71C0.364,-0.71 0.413,-0.695 0.453,-0.665C0.492,-0.634 0.522,-0.592 0.543,-0.538C0.564,-0.484 0.574,-0.421 0.574,-0.35C0.574,-0.279 0.564,-0.217 0.543,-0.163C0.522,-0.108 0.492,-0.066 0.453,-0.036C0.413,-0.005 0.364,0.01 0.307,0.01ZM0.307,-0.11C0.335,-0.11 0.359,-0.119 0.38,-0.137C0.4,-0.154 0.416,-0.181 0.427,-0.217C0.438,-0.252 0.444,-0.297 0.444,-0.35C0.444,-0.404 0.438,-0.449 0.427,-0.484C0.416,-0.519 0.4,-0.546 0.38,-0.564C0.359,-0.581 0.335,-0.59 0.307,-0.59C0.28,-0.59 0.256,-0.581 0.235,-0.564C0.214,-0.546 0.198,-0.519 0.187,-0.484C0.176,-0.449 0.17,-0.404 0.17,-0.35C0.17,-0.297 0.176,-0.252 0.187,-0.217C0.198,-0.181 0.214,-0.154 0.235,-0.137C0.256,-0.119 0.28,-0.11 0.307,-0.11Z" style="fill:white;fill-rule:nonzero;"/>
        </g>
        <g transform="matrix(73.0166,-12.0238,12.0238,73.0166,748.502,1149.89)">
            <path d="M0.2,0.005C0.183,0.005 0.169,-0 0.157,-0.012C0.144,-0.023 0.138,-0.036 0.138,-0.053C0.138,-0.062 0.14,-0.071 0.144,-0.08L0.389,-0.611L0.4,-0.584L0.111,-0.584C0.095,-0.584 0.082,-0.589 0.071,-0.6C0.06,-0.611 0.055,-0.624 0.055,-0.64C0.055,-0.655 0.06,-0.668 0.071,-0.679C0.082,-0.689 0.095,-0.694 0.111,-0.694L0.459,-0.694C0.476,-0.694 0.492,-0.689 0.505,-0.678C0.518,-0.667 0.524,-0.652 0.524,-0.635C0.524,-0.626 0.522,-0.617 0.518,-0.608L0.255,-0.033C0.25,-0.021 0.243,-0.012 0.233,-0.005C0.222,0.002 0.211,0.005 0.2,0.005Z" style="fill:white;fill-rule:nonzero;"/>
        </g>
    </g>
    <g id="TopText" transform="matrix(0.999364,-0.0356611,0.0356611,0.999364,-215.658,-188.536)">
        <g transform="matrix(-1.84759,-73.9769,73.9769,-1.84759,316.974,764.924)">
            <path d="M0.312,-0C0.293,-0 0.278,-0.006 0.266,-0.018C0.254,-0.029 0.248,-0.044 0.248,-0.061L0.248,-0.641L0.378,-0.641L0.378,-0.061C0.378,-0.044 0.372,-0.029 0.36,-0.018C0.347,-0.006 0.331,-0 0.312,-0ZM0.091,-0.585C0.074,-0.585 0.059,-0.59 0.048,-0.601C0.036,-0.612 0.03,-0.626 0.03,-0.643C0.03,-0.66 0.036,-0.674 0.048,-0.685C0.059,-0.695 0.074,-0.7 0.091,-0.7L0.535,-0.7C0.552,-0.7 0.567,-0.695 0.579,-0.684C0.59,-0.673 0.596,-0.659 0.596,-0.642C0.596,-0.625 0.59,-0.611 0.579,-0.601C0.567,-0.59 0.552,-0.585 0.535,-0.585L0.091,-0.585Z" style="fill:white;fill-rule:nonzero;"/>
        </g>
        <g transform="matrix(6.38005,-73.7245,73.7245,6.38005,315.849,720.057)">
            <path d="M0.346,-0.545C0.394,-0.545 0.431,-0.535 0.456,-0.514C0.481,-0.493 0.498,-0.466 0.507,-0.432C0.516,-0.397 0.521,-0.359 0.521,-0.317L0.521,-0.061C0.521,-0.044 0.515,-0.029 0.504,-0.018C0.493,-0.006 0.478,-0 0.461,-0C0.444,-0 0.429,-0.006 0.418,-0.018C0.407,-0.029 0.401,-0.044 0.401,-0.061L0.401,-0.317C0.401,-0.339 0.398,-0.359 0.393,-0.377C0.388,-0.394 0.378,-0.408 0.364,-0.419C0.35,-0.43 0.33,-0.435 0.304,-0.435C0.279,-0.435 0.257,-0.43 0.239,-0.419C0.221,-0.408 0.208,-0.394 0.199,-0.377C0.19,-0.359 0.185,-0.339 0.185,-0.317L0.185,-0.061C0.185,-0.044 0.179,-0.029 0.168,-0.018C0.157,-0.006 0.142,-0 0.125,-0C0.108,-0 0.093,-0.006 0.082,-0.018C0.071,-0.029 0.065,-0.044 0.065,-0.061L0.065,-0.679C0.065,-0.696 0.071,-0.711 0.082,-0.723C0.093,-0.734 0.108,-0.74 0.125,-0.74C0.142,-0.74 0.157,-0.734 0.168,-0.723C0.179,-0.711 0.185,-0.696 0.185,-0.679L0.185,-0.431L0.17,-0.434C0.176,-0.445 0.184,-0.458 0.195,-0.471C0.206,-0.484 0.219,-0.496 0.234,-0.507C0.249,-0.518 0.266,-0.528 0.285,-0.535C0.304,-0.542 0.324,-0.545 0.346,-0.545Z" style="fill:white;fill-rule:nonzero;"/>
        </g>
        <g transform="matrix(14.396,-72.5862,72.5862,14.396,319.375,678.268)">
            <path d="M0.317,0.01C0.26,0.01 0.211,-0.002 0.17,-0.026C0.128,-0.049 0.096,-0.081 0.074,-0.122C0.051,-0.163 0.04,-0.209 0.04,-0.26C0.04,-0.32 0.052,-0.371 0.077,-0.414C0.101,-0.456 0.133,-0.488 0.172,-0.511C0.211,-0.534 0.253,-0.545 0.297,-0.545C0.331,-0.545 0.363,-0.538 0.394,-0.524C0.424,-0.51 0.451,-0.491 0.474,-0.467C0.497,-0.442 0.516,-0.414 0.53,-0.382C0.543,-0.35 0.55,-0.316 0.55,-0.28C0.549,-0.264 0.543,-0.251 0.531,-0.241C0.519,-0.231 0.505,-0.226 0.489,-0.226L0.107,-0.226L0.077,-0.326L0.444,-0.326L0.422,-0.306L0.422,-0.333C0.421,-0.352 0.414,-0.37 0.402,-0.385C0.389,-0.4 0.374,-0.413 0.356,-0.422C0.337,-0.431 0.318,-0.435 0.297,-0.435C0.277,-0.435 0.258,-0.432 0.241,-0.427C0.224,-0.422 0.209,-0.413 0.196,-0.4C0.183,-0.387 0.173,-0.37 0.166,-0.349C0.159,-0.328 0.155,-0.301 0.155,-0.268C0.155,-0.232 0.163,-0.202 0.178,-0.177C0.193,-0.152 0.212,-0.133 0.236,-0.12C0.259,-0.107 0.284,-0.1 0.311,-0.1C0.336,-0.1 0.355,-0.102 0.37,-0.106C0.385,-0.11 0.397,-0.115 0.406,-0.121C0.415,-0.126 0.423,-0.131 0.43,-0.135C0.442,-0.141 0.453,-0.144 0.464,-0.144C0.479,-0.144 0.491,-0.139 0.501,-0.129C0.51,-0.119 0.515,-0.107 0.515,-0.094C0.515,-0.076 0.506,-0.06 0.487,-0.045C0.47,-0.03 0.445,-0.017 0.414,-0.007C0.383,0.005 0.35,0.01 0.317,0.01Z" style="fill:white;fill-rule:nonzero;"/>
        </g>
        <g transform="matrix(25.9688,-69.2937,69.2937,25.9688,332.724,618.187)">
            <path d="M0.136,-0.7L0.471,-0.7C0.488,-0.7 0.503,-0.695 0.515,-0.684C0.526,-0.673 0.532,-0.658 0.532,-0.641C0.532,-0.624 0.526,-0.611 0.515,-0.601C0.503,-0.59 0.488,-0.585 0.471,-0.585L0.191,-0.585L0.2,-0.602L0.2,-0.407L0.192,-0.415L0.426,-0.415C0.443,-0.415 0.458,-0.41 0.47,-0.399C0.481,-0.388 0.487,-0.373 0.487,-0.356C0.487,-0.339 0.481,-0.326 0.47,-0.316C0.458,-0.305 0.443,-0.3 0.426,-0.3L0.195,-0.3L0.2,-0.308L0.2,-0.106L0.192,-0.115L0.471,-0.115C0.488,-0.115 0.503,-0.109 0.515,-0.098C0.526,-0.086 0.532,-0.072 0.532,-0.057C0.532,-0.04 0.526,-0.027 0.515,-0.016C0.503,-0.005 0.488,-0 0.471,-0L0.136,-0C0.119,-0 0.104,-0.006 0.093,-0.018C0.081,-0.029 0.075,-0.044 0.075,-0.061L0.075,-0.639C0.075,-0.656 0.081,-0.671 0.093,-0.683C0.104,-0.694 0.119,-0.7 0.136,-0.7Z" style="fill:white;fill-rule:nonzero;"/>
        </g>
        <g transform="matrix(35.1904,-65.0971,65.0971,35.1904,346.098,579.456)">
            <path d="M0.346,-0.545C0.399,-0.545 0.439,-0.532 0.464,-0.507C0.489,-0.481 0.506,-0.448 0.514,-0.407L0.497,-0.416L0.505,-0.432C0.513,-0.447 0.525,-0.464 0.542,-0.482C0.559,-0.499 0.579,-0.514 0.603,-0.527C0.626,-0.539 0.653,-0.545 0.682,-0.545C0.73,-0.545 0.767,-0.535 0.792,-0.514C0.817,-0.493 0.834,-0.466 0.843,-0.432C0.852,-0.397 0.857,-0.359 0.857,-0.317L0.857,-0.061C0.857,-0.044 0.851,-0.029 0.84,-0.018C0.829,-0.006 0.814,-0 0.797,-0C0.78,-0 0.765,-0.006 0.754,-0.018C0.743,-0.029 0.737,-0.044 0.737,-0.061L0.737,-0.317C0.737,-0.339 0.734,-0.359 0.729,-0.377C0.724,-0.394 0.714,-0.408 0.7,-0.419C0.686,-0.43 0.666,-0.435 0.64,-0.435C0.615,-0.435 0.593,-0.43 0.575,-0.419C0.557,-0.408 0.544,-0.394 0.535,-0.377C0.526,-0.359 0.521,-0.339 0.521,-0.317L0.521,-0.061C0.521,-0.044 0.515,-0.029 0.504,-0.018C0.493,-0.006 0.478,-0 0.461,-0C0.444,-0 0.429,-0.006 0.418,-0.018C0.407,-0.029 0.401,-0.044 0.401,-0.061L0.401,-0.317C0.401,-0.339 0.398,-0.359 0.393,-0.377C0.388,-0.394 0.378,-0.408 0.364,-0.419C0.35,-0.43 0.33,-0.435 0.304,-0.435C0.279,-0.435 0.257,-0.43 0.239,-0.419C0.221,-0.408 0.208,-0.394 0.199,-0.377C0.19,-0.359 0.185,-0.339 0.185,-0.317L0.185,-0.061C0.185,-0.044 0.179,-0.029 0.168,-0.018C0.157,-0.006 0.142,-0 0.125,-0C0.108,-0 0.093,-0.006 0.082,-0.018C0.071,-0.029 0.065,-0.044 0.065,-0.061L0.065,-0.474C0.065,-0.491 0.071,-0.506 0.082,-0.518C0.093,-0.529 0.108,-0.535 0.125,-0.535C0.142,-0.535 0.157,-0.529 0.168,-0.518C0.179,-0.506 0.185,-0.491 0.185,-0.474L0.185,-0.431L0.17,-0.434C0.176,-0.445 0.184,-0.458 0.195,-0.471C0.206,-0.484 0.219,-0.496 0.234,-0.507C0.249,-0.518 0.266,-0.528 0.285,-0.535C0.304,-0.542 0.324,-0.545 0.346,-0.545Z" style="fill:white;fill-rule:nonzero;"/>
        </g>
        <g transform="matrix(44.3704,-59.2222,59.2222,44.3704,378.433,520.978)">
            <path d="M0.342,-0.545C0.389,-0.545 0.431,-0.533 0.468,-0.51C0.505,-0.486 0.534,-0.453 0.556,-0.412C0.577,-0.371 0.588,-0.323 0.588,-0.268C0.588,-0.213 0.577,-0.165 0.556,-0.124C0.534,-0.082 0.505,-0.049 0.469,-0.026C0.432,-0.002 0.391,0.01 0.346,0.01C0.319,0.01 0.294,0.006 0.271,-0.003C0.248,-0.012 0.227,-0.023 0.21,-0.036C0.192,-0.049 0.178,-0.063 0.169,-0.077C0.159,-0.09 0.154,-0.102 0.154,-0.111L0.185,-0.124L0.185,-0.051C0.185,-0.034 0.179,-0.019 0.168,-0.008C0.157,0.004 0.142,0.01 0.125,0.01C0.108,0.01 0.093,0.004 0.082,-0.007C0.071,-0.018 0.065,-0.033 0.065,-0.051L0.065,-0.679C0.065,-0.696 0.071,-0.711 0.082,-0.723C0.093,-0.734 0.108,-0.74 0.125,-0.74C0.142,-0.74 0.157,-0.734 0.168,-0.723C0.179,-0.711 0.185,-0.696 0.185,-0.679L0.185,-0.425L0.168,-0.434C0.168,-0.443 0.173,-0.453 0.182,-0.466C0.191,-0.478 0.204,-0.49 0.22,-0.503C0.236,-0.515 0.255,-0.525 0.276,-0.533C0.297,-0.541 0.319,-0.545 0.342,-0.545ZM0.327,-0.435C0.298,-0.435 0.272,-0.428 0.25,-0.413C0.228,-0.398 0.211,-0.379 0.199,-0.354C0.186,-0.329 0.18,-0.3 0.18,-0.268C0.18,-0.237 0.186,-0.208 0.199,-0.183C0.211,-0.157 0.228,-0.137 0.25,-0.122C0.272,-0.107 0.298,-0.1 0.327,-0.1C0.356,-0.1 0.382,-0.107 0.404,-0.122C0.425,-0.137 0.442,-0.157 0.455,-0.183C0.467,-0.208 0.473,-0.237 0.473,-0.268C0.473,-0.3 0.467,-0.329 0.455,-0.354C0.442,-0.379 0.425,-0.398 0.404,-0.413C0.382,-0.428 0.356,-0.435 0.327,-0.435Z" style="fill:white;fill-rule:nonzero;"/>
        </g>
        <g transform="matrix(48.9321,-55.5126,55.5126,48.9321,405.716,485.278)">
            <path d="M0.195,-0.061C0.195,-0.044 0.189,-0.029 0.178,-0.018C0.166,-0.006 0.151,-0 0.134,-0C0.117,-0 0.103,-0.006 0.092,-0.018C0.081,-0.029 0.075,-0.044 0.075,-0.061L0.075,-0.679C0.075,-0.696 0.081,-0.711 0.093,-0.723C0.104,-0.734 0.119,-0.74 0.136,-0.74C0.153,-0.74 0.167,-0.734 0.179,-0.723C0.19,-0.711 0.195,-0.696 0.195,-0.679L0.195,-0.061Z" style="fill:white;fill-rule:nonzero;"/>
        </g>
        <g transform="matrix(53.0223,-51.6201,51.6201,53.0223,417.066,471.591)">
            <path d="M0.317,0.01C0.26,0.01 0.211,-0.002 0.17,-0.026C0.128,-0.049 0.096,-0.081 0.074,-0.122C0.051,-0.163 0.04,-0.209 0.04,-0.26C0.04,-0.32 0.052,-0.371 0.077,-0.414C0.101,-0.456 0.133,-0.488 0.172,-0.511C0.211,-0.534 0.253,-0.545 0.297,-0.545C0.331,-0.545 0.363,-0.538 0.394,-0.524C0.424,-0.51 0.451,-0.491 0.474,-0.467C0.497,-0.442 0.516,-0.414 0.53,-0.382C0.543,-0.35 0.55,-0.316 0.55,-0.28C0.549,-0.264 0.543,-0.251 0.531,-0.241C0.519,-0.231 0.505,-0.226 0.489,-0.226L0.107,-0.226L0.077,-0.326L0.444,-0.326L0.422,-0.306L0.422,-0.333C0.421,-0.352 0.414,-0.37 0.402,-0.385C0.389,-0.4 0.374,-0.413 0.356,-0.422C0.337,-0.431 0.318,-0.435 0.297,-0.435C0.277,-0.435 0.258,-0.432 0.241,-0.427C0.224,-0.422 0.209,-0.413 0.196,-0.4C0.183,-0.387 0.173,-0.37 0.166,-0.349C0.159,-0.328 0.155,-0.301 0.155,-0.268C0.155,-0.232 0.163,-0.202 0.178,-0.177C0.193,-0.152 0.212,-0.133 0.236,-0.12C0.259,-0.107 0.284,-0.1 0.311,-0.1C0.336,-0.1 0.355,-0.102 0.37,-0.106C0.385,-0.11 0.397,-0.115 0.406,-0.121C0.415,-0.126 0.423,-0.131 0.43,-0.135C0.442,-0.141 0.453,-0.144 0.464,-0.144C0.479,-0.144 0.491,-0.139 0.501,-0.129C0.51,-0.119 0.515,-0.107 0.515,-0.094C0.515,-0.076 0.506,-0.06 0.487,-0.045C0.47,-0.03 0.445,-0.017 0.414,-0.007C0.383,0.005 0.35,0.01 0.317,0.01Z" style="fill:white;fill-rule:nonzero;"/>
        </g>
        <g transform="matrix(59.749,-43.6585,43.6585,59.749,446.816,441.295)">
            <path d="M0.346,-0.545C0.399,-0.545 0.439,-0.532 0.464,-0.507C0.489,-0.481 0.506,-0.448 0.514,-0.407L0.497,-0.416L0.505,-0.432C0.513,-0.447 0.525,-0.464 0.542,-0.482C0.559,-0.499 0.579,-0.514 0.603,-0.527C0.626,-0.539 0.653,-0.545 0.682,-0.545C0.73,-0.545 0.767,-0.535 0.792,-0.514C0.817,-0.493 0.834,-0.466 0.843,-0.432C0.852,-0.397 0.857,-0.359 0.857,-0.317L0.857,-0.061C0.857,-0.044 0.851,-0.029 0.84,-0.018C0.829,-0.006 0.814,-0 0.797,-0C0.78,-0 0.765,-0.006 0.754,-0.018C0.743,-0.029 0.737,-0.044 0.737,-0.061L0.737,-0.317C0.737,-0.339 0.734,-0.359 0.729,-0.377C0.724,-0.394 0.714,-0.408 0.7,-0.419C0.686,-0.43 0.666,-0.435 0.64,-0.435C0.615,-0.435 0.593,-0.43 0.575,-0.419C0.557,-0.408 0.544,-0.394 0.535,-0.377C0.526,-0.359 0.521,-0.339 0.521,-0.317L0.521,-0.061C0.521,-0.044 0.515,-0.029 0.504,-0.018C0.493,-0.006 0.478,-0 0.461,-0C0.444,-0 0.429,-0.006 0.418,-0.018C0.407,-0.029 0.401,-0.044 0.401,-0.061L0.401,-0.317C0.401,-0.339 0.398,-0.359 0.393,-0.377C0.388,-0.394 0.378,-0.408 0.364,-0.419C0.35,-0.43 0.33,-0.435 0.304,-0.435C0.279,-0.435 0.257,-0.43 0.239,-0.419C0.221,-0.408 0.208,-0.394 0.199,-0.377C0.19,-0.359 0.185,-0.339 0.185,-0.317L0.185,-0.061C0.185,-0.044 0.179,-0.029 0.168,-0.018C0.157,-0.006 0.142,-0 0.125,-0C0.108,-0 0.093,-0.006 0.082,-0.018C0.071,-0.029 0.065,-0.044 0.065,-0.061L0.065,-0.474C0.065,-0.491 0.071,-0.506 0.082,-0.518C0.093,-0.529 0.108,-0.535 0.125,-0.535C0.142,-0.535 0.157,-0.529 0.168,-0.518C0.179,-0.506 0.185,-0.491 0.185,-0.474L0.185,-0.431L0.17,-0.434C0.176,-0.445 0.184,-0.458 0.195,-0.471C0.206,-0.484 0.219,-0.496 0.234,-0.507C0.249,-0.518 0.266,-0.528 0.285,-0.535C0.304,-0.542 0.324,-0.545 0.346,-0.545Z" style="fill:white;fill-rule:nonzero;"/>
        </g>
        <g transform="matrix(67.0674,-31.2725,31.2725,67.0674,517.825,392.867)">
            <path d="M0.584,-0.267C0.584,-0.212 0.572,-0.164 0.548,-0.123C0.523,-0.081 0.491,-0.048 0.45,-0.025C0.409,-0.002 0.363,0.01 0.312,0.01C0.261,0.01 0.216,-0.002 0.175,-0.025C0.134,-0.048 0.101,-0.081 0.077,-0.123C0.052,-0.164 0.04,-0.212 0.04,-0.267C0.04,-0.322 0.052,-0.37 0.077,-0.412C0.101,-0.453 0.134,-0.486 0.175,-0.51C0.216,-0.533 0.261,-0.545 0.312,-0.545C0.363,-0.545 0.409,-0.533 0.45,-0.51C0.491,-0.486 0.523,-0.453 0.548,-0.412C0.572,-0.37 0.584,-0.322 0.584,-0.267ZM0.464,-0.267C0.464,-0.301 0.457,-0.331 0.444,-0.356C0.43,-0.381 0.411,-0.4 0.389,-0.414C0.366,-0.428 0.34,-0.435 0.312,-0.435C0.284,-0.435 0.259,-0.428 0.236,-0.414C0.213,-0.4 0.194,-0.381 0.181,-0.356C0.167,-0.331 0.16,-0.301 0.16,-0.267C0.16,-0.234 0.167,-0.204 0.181,-0.18C0.194,-0.155 0.213,-0.135 0.236,-0.121C0.259,-0.107 0.284,-0.1 0.312,-0.1C0.34,-0.1 0.366,-0.107 0.389,-0.121C0.411,-0.135 0.43,-0.155 0.444,-0.18C0.457,-0.204 0.464,-0.234 0.464,-0.267Z" style="fill:white;fill-rule:nonzero;"/>
        </g>
        <g transform="matrix(69.885,-24.3329,24.3329,69.885,558.453,374.176)">
            <path d="M0.34,-0.74C0.355,-0.74 0.369,-0.738 0.383,-0.734C0.397,-0.73 0.409,-0.724 0.418,-0.715C0.427,-0.706 0.432,-0.694 0.432,-0.679C0.432,-0.662 0.427,-0.649 0.418,-0.64C0.408,-0.63 0.397,-0.625 0.384,-0.625C0.378,-0.625 0.369,-0.627 0.357,-0.63C0.345,-0.632 0.333,-0.634 0.322,-0.634C0.305,-0.634 0.293,-0.63 0.284,-0.623C0.275,-0.616 0.268,-0.607 0.265,-0.598C0.262,-0.588 0.26,-0.579 0.26,-0.572L0.26,-0.061C0.26,-0.044 0.254,-0.029 0.243,-0.018C0.232,-0.006 0.217,-0 0.2,-0C0.183,-0 0.168,-0.006 0.157,-0.018C0.146,-0.029 0.14,-0.044 0.14,-0.061L0.14,-0.571C0.14,-0.618 0.157,-0.658 0.19,-0.691C0.223,-0.724 0.273,-0.74 0.34,-0.74ZM0.351,-0.525C0.367,-0.525 0.38,-0.52 0.391,-0.51C0.402,-0.499 0.407,-0.486 0.407,-0.47C0.407,-0.454 0.402,-0.441 0.391,-0.431C0.38,-0.42 0.367,-0.415 0.351,-0.415L0.086,-0.415C0.07,-0.415 0.057,-0.42 0.046,-0.431C0.035,-0.441 0.03,-0.454 0.03,-0.47C0.03,-0.486 0.035,-0.499 0.046,-0.51C0.057,-0.52 0.07,-0.525 0.086,-0.525L0.351,-0.525Z" style="fill:white;fill-rule:nonzero;"/>
        </g>
        <g transform="matrix(72.7131,-13.7408,13.7408,72.7131,606.046,358.349)">
            <path d="M0.364,-0.7C0.399,-0.7 0.431,-0.69 0.462,-0.67C0.492,-0.65 0.516,-0.623 0.535,-0.589C0.554,-0.555 0.563,-0.517 0.563,-0.475C0.563,-0.434 0.554,-0.396 0.535,-0.362C0.516,-0.328 0.492,-0.301 0.462,-0.281C0.431,-0.26 0.399,-0.25 0.364,-0.25L0.18,-0.25L0.19,-0.268L0.19,-0.061C0.19,-0.044 0.185,-0.029 0.174,-0.018C0.163,-0.006 0.149,-0 0.132,-0C0.115,-0 0.102,-0.006 0.091,-0.018C0.08,-0.029 0.075,-0.044 0.075,-0.061L0.075,-0.639C0.075,-0.656 0.081,-0.671 0.093,-0.683C0.104,-0.694 0.119,-0.7 0.136,-0.7L0.364,-0.7ZM0.364,-0.364C0.377,-0.364 0.389,-0.369 0.401,-0.38C0.413,-0.391 0.423,-0.405 0.431,-0.422C0.439,-0.439 0.443,-0.456 0.443,-0.475C0.443,-0.494 0.439,-0.512 0.431,-0.529C0.423,-0.546 0.413,-0.559 0.401,-0.57C0.389,-0.58 0.377,-0.585 0.364,-0.585L0.178,-0.585L0.19,-0.603L0.19,-0.348L0.179,-0.364L0.364,-0.364Z" style="fill:white;fill-rule:nonzero;"/>
        </g>
        <g transform="matrix(73.7013,-6.64226,6.64226,73.7013,648.436,350.43)">
            <path d="M0.125,-0C0.108,-0 0.093,-0.006 0.082,-0.018C0.071,-0.029 0.065,-0.044 0.065,-0.061L0.065,-0.474C0.065,-0.491 0.071,-0.506 0.082,-0.518C0.093,-0.529 0.108,-0.535 0.125,-0.535C0.142,-0.535 0.157,-0.529 0.168,-0.518C0.179,-0.506 0.185,-0.491 0.185,-0.474L0.185,-0.38L0.178,-0.447C0.185,-0.463 0.195,-0.477 0.207,-0.49C0.218,-0.502 0.231,-0.512 0.246,-0.521C0.261,-0.529 0.276,-0.535 0.293,-0.539C0.31,-0.543 0.326,-0.545 0.343,-0.545C0.363,-0.545 0.38,-0.539 0.394,-0.528C0.407,-0.517 0.414,-0.503 0.414,-0.488C0.414,-0.466 0.408,-0.45 0.397,-0.441C0.386,-0.431 0.373,-0.426 0.36,-0.426C0.347,-0.426 0.336,-0.428 0.326,-0.433C0.315,-0.438 0.303,-0.44 0.29,-0.44C0.278,-0.44 0.266,-0.437 0.254,-0.432C0.241,-0.426 0.23,-0.417 0.22,-0.405C0.209,-0.393 0.201,-0.378 0.195,-0.361C0.188,-0.343 0.185,-0.322 0.185,-0.298L0.185,-0.061C0.185,-0.044 0.179,-0.029 0.168,-0.018C0.157,-0.006 0.142,-0 0.125,-0Z" style="fill:white;fill-rule:nonzero;"/>
        </g>
        <g transform="matrix(73.957,-2.52165,2.52165,73.957,678.952,347.798)">
            <path d="M0.178,-0.061C0.178,-0.044 0.172,-0.029 0.161,-0.018C0.15,-0.006 0.135,-0 0.118,-0C0.101,-0 0.086,-0.006 0.075,-0.018C0.064,-0.029 0.058,-0.044 0.058,-0.061L0.058,-0.474C0.058,-0.491 0.064,-0.506 0.075,-0.518C0.086,-0.529 0.101,-0.535 0.118,-0.535C0.135,-0.535 0.15,-0.529 0.161,-0.518C0.172,-0.506 0.178,-0.491 0.178,-0.474L0.178,-0.061ZM0.117,-0.6C0.094,-0.6 0.078,-0.604 0.069,-0.611C0.06,-0.618 0.055,-0.631 0.055,-0.65L0.055,-0.669C0.055,-0.688 0.06,-0.702 0.071,-0.709C0.081,-0.716 0.097,-0.719 0.118,-0.719C0.141,-0.719 0.158,-0.715 0.167,-0.708C0.176,-0.701 0.181,-0.688 0.181,-0.669L0.181,-0.65C0.181,-0.631 0.176,-0.618 0.166,-0.611C0.156,-0.604 0.14,-0.6 0.117,-0.6Z" style="fill:white;fill-rule:nonzero;"/>
        </g>
        <g transform="matrix(73.8078,5.32993,-5.32993,73.8078,695.031,345.826)">
            <path d="M0.346,-0.545C0.399,-0.545 0.439,-0.532 0.464,-0.507C0.489,-0.481 0.506,-0.448 0.514,-0.407L0.497,-0.416L0.505,-0.432C0.513,-0.447 0.525,-0.464 0.542,-0.482C0.559,-0.499 0.579,-0.514 0.603,-0.527C0.626,-0.539 0.653,-0.545 0.682,-0.545C0.73,-0.545 0.767,-0.535 0.792,-0.514C0.817,-0.493 0.834,-0.466 0.843,-0.432C0.852,-0.397 0.857,-0.359 0.857,-0.317L0.857,-0.061C0.857,-0.044 0.851,-0.029 0.84,-0.018C0.829,-0.006 0.814,-0 0.797,-0C0.78,-0 0.765,-0.006 0.754,-0.018C0.743,-0.029 0.737,-0.044 0.737,-0.061L0.737,-0.317C0.737,-0.339 0.734,-0.359 0.729,-0.377C0.724,-0.394 0.714,-0.408 0.7,-0.419C0.686,-0.43 0.666,-0.435 0.64,-0.435C0.615,-0.435 0.593,-0.43 0.575,-0.419C0.557,-0.408 0.544,-0.394 0.535,-0.377C0.526,-0.359 0.521,-0.339 0.521,-0.317L0.521,-0.061C0.521,-0.044 0.515,-0.029 0.504,-0.018C0.493,-0.006 0.478,-0 0.461,-0C0.444,-0 0.429,-0.006 0.418,-0.018C0.407,-0.029 0.401,-0.044 0.401,-0.061L0.401,-0.317C0.401,-0.339 0.398,-0.359 0.393,-0.377C0.388,-0.394 0.378,-0.408 0.364,-0.419C0.35,-0.43 0.33,-0.435 0.304,-0.435C0.279,-0.435 0.257,-0.43 0.239,-0.419C0.221,-0.408 0.208,-0.394 0.199,-0.377C0.19,-0.359 0.185,-0.339 0.185,-0.317L0.185,-0.061C0.185,-0.044 0.179,-0.029 0.168,-0.018C0.157,-0.006 0.142,-0 0.125,-0C0.108,-0 0.093,-0.006 0.082,-0.018C0.071,-0.029 0.065,-0.044 0.065,-0.061L0.065,-0.474C0.065,-0.491 0.071,-0.506 0.082,-0.518C0.093,-0.529 0.108,-0.535 0.125,-0.535C0.142,-0.535 0.157,-0.529 0.168,-0.518C0.179,-0.506 0.185,-0.491 0.185,-0.474L0.185,-0.431L0.17,-0.434C0.176,-0.445 0.184,-0.458 0.195,-0.471C0.206,-0.484 0.219,-0.496 0.234,-0.507C0.249,-0.518 0.266,-0.528 0.285,-0.535C0.304,-0.542 0.324,-0.545 0.346,-0.545Z" style="fill:white;fill-rule:nonzero;"/>
        </g>
        <g transform="matrix(72.477,14.9359,-14.9359,72.477,761.577,351.609)">
            <path d="M0.125,-0C0.108,-0 0.093,-0.006 0.082,-0.018C0.071,-0.029 0.065,-0.044 0.065,-0.061L0.065,-0.474C0.065,-0.491 0.071,-0.506 0.082,-0.518C0.093,-0.529 0.108,-0.535 0.125,-0.535C0.142,-0.535 0.157,-0.529 0.168,-0.518C0.179,-0.506 0.185,-0.491 0.185,-0.474L0.185,-0.38L0.178,-0.447C0.185,-0.463 0.195,-0.477 0.207,-0.49C0.218,-0.502 0.231,-0.512 0.246,-0.521C0.261,-0.529 0.276,-0.535 0.293,-0.539C0.31,-0.543 0.326,-0.545 0.343,-0.545C0.363,-0.545 0.38,-0.539 0.394,-0.528C0.407,-0.517 0.414,-0.503 0.414,-0.488C0.414,-0.466 0.408,-0.45 0.397,-0.441C0.386,-0.431 0.373,-0.426 0.36,-0.426C0.347,-0.426 0.336,-0.428 0.326,-0.433C0.315,-0.438 0.303,-0.44 0.29,-0.44C0.278,-0.44 0.266,-0.437 0.254,-0.432C0.241,-0.426 0.23,-0.417 0.22,-0.405C0.209,-0.393 0.201,-0.378 0.195,-0.361C0.188,-0.343 0.185,-0.322 0.185,-0.298L0.185,-0.061C0.185,-0.044 0.179,-0.029 0.168,-0.018C0.157,-0.006 0.142,-0 0.125,-0Z" style="fill:white;fill-rule:nonzero;"/>
        </g>
        <g transform="matrix(70.8404,21.3926,-21.3926,70.8404,790.14,356.954)">
            <path d="M0.584,-0.267C0.584,-0.212 0.572,-0.164 0.548,-0.123C0.523,-0.081 0.491,-0.048 0.45,-0.025C0.409,-0.002 0.363,0.01 0.312,0.01C0.261,0.01 0.216,-0.002 0.175,-0.025C0.134,-0.048 0.101,-0.081 0.077,-0.123C0.052,-0.164 0.04,-0.212 0.04,-0.267C0.04,-0.322 0.052,-0.37 0.077,-0.412C0.101,-0.453 0.134,-0.486 0.175,-0.51C0.216,-0.533 0.261,-0.545 0.312,-0.545C0.363,-0.545 0.409,-0.533 0.45,-0.51C0.491,-0.486 0.523,-0.453 0.548,-0.412C0.572,-0.37 0.584,-0.322 0.584,-0.267ZM0.464,-0.267C0.464,-0.301 0.457,-0.331 0.444,-0.356C0.43,-0.381 0.411,-0.4 0.389,-0.414C0.366,-0.428 0.34,-0.435 0.312,-0.435C0.284,-0.435 0.259,-0.428 0.236,-0.414C0.213,-0.4 0.194,-0.381 0.181,-0.356C0.167,-0.331 0.16,-0.301 0.16,-0.267C0.16,-0.234 0.167,-0.204 0.181,-0.18C0.194,-0.155 0.213,-0.135 0.236,-0.121C0.259,-0.107 0.284,-0.1 0.312,-0.1C0.34,-0.1 0.366,-0.107 0.389,-0.121C0.411,-0.135 0.43,-0.155 0.444,-0.18C0.457,-0.204 0.464,-0.234 0.464,-0.267Z" style="fill:white;fill-rule:nonzero;"/>
        </g>
        <g transform="matrix(68.2897,28.5047,-28.5047,68.2897,832.825,370.064)">
            <path d="M0.034,-0.083C0.027,-0.092 0.024,-0.104 0.025,-0.119C0.026,-0.134 0.034,-0.146 0.051,-0.157C0.062,-0.164 0.073,-0.167 0.085,-0.166C0.097,-0.165 0.109,-0.158 0.12,-0.147C0.139,-0.128 0.16,-0.113 0.181,-0.102C0.202,-0.091 0.229,-0.086 0.261,-0.086C0.271,-0.087 0.282,-0.088 0.294,-0.091C0.306,-0.093 0.317,-0.098 0.326,-0.107C0.335,-0.115 0.339,-0.128 0.339,-0.145C0.339,-0.16 0.334,-0.171 0.324,-0.18C0.314,-0.189 0.301,-0.196 0.285,-0.202C0.268,-0.208 0.25,-0.214 0.23,-0.219C0.209,-0.225 0.188,-0.232 0.167,-0.239C0.145,-0.246 0.125,-0.256 0.107,-0.268C0.089,-0.279 0.074,-0.295 0.063,-0.314C0.052,-0.333 0.046,-0.358 0.046,-0.387C0.046,-0.42 0.055,-0.449 0.074,-0.472C0.093,-0.495 0.117,-0.513 0.147,-0.526C0.176,-0.539 0.207,-0.545 0.24,-0.545C0.261,-0.545 0.282,-0.543 0.305,-0.538C0.328,-0.533 0.349,-0.525 0.37,-0.514C0.391,-0.502 0.408,-0.488 0.422,-0.47C0.429,-0.46 0.434,-0.448 0.435,-0.434C0.436,-0.42 0.43,-0.407 0.416,-0.396C0.406,-0.388 0.394,-0.385 0.381,-0.386C0.368,-0.387 0.357,-0.391 0.348,-0.399C0.337,-0.414 0.322,-0.425 0.303,-0.434C0.284,-0.443 0.262,-0.447 0.237,-0.447C0.227,-0.447 0.216,-0.446 0.205,-0.444C0.193,-0.441 0.183,-0.436 0.174,-0.429C0.165,-0.421 0.161,-0.409 0.161,-0.392C0.161,-0.377 0.166,-0.365 0.176,-0.356C0.186,-0.347 0.2,-0.339 0.217,-0.334C0.234,-0.328 0.252,-0.322 0.271,-0.317C0.291,-0.312 0.311,-0.305 0.332,-0.298C0.353,-0.291 0.372,-0.281 0.389,-0.269C0.406,-0.257 0.42,-0.242 0.431,-0.223C0.442,-0.204 0.447,-0.179 0.447,-0.15C0.447,-0.116 0.437,-0.087 0.417,-0.063C0.397,-0.039 0.372,-0.021 0.342,-0.009C0.312,0.004 0.281,0.01 0.25,0.01C0.211,0.01 0.171,0.003 0.132,-0.011C0.093,-0.024 0.06,-0.048 0.034,-0.083Z" style="fill:white;fill-rule:nonzero;"/>
        </g>
        <g transform="matrix(65.0838,35.215,-35.215,65.0838,864.482,383.001)">
            <path d="M0.317,0.01C0.26,0.01 0.211,-0.002 0.17,-0.026C0.128,-0.049 0.096,-0.081 0.074,-0.122C0.051,-0.163 0.04,-0.209 0.04,-0.26C0.04,-0.32 0.052,-0.371 0.077,-0.414C0.101,-0.456 0.133,-0.488 0.172,-0.511C0.211,-0.534 0.253,-0.545 0.297,-0.545C0.331,-0.545 0.363,-0.538 0.394,-0.524C0.424,-0.51 0.451,-0.491 0.474,-0.467C0.497,-0.442 0.516,-0.414 0.53,-0.382C0.543,-0.35 0.55,-0.316 0.55,-0.28C0.549,-0.264 0.543,-0.251 0.531,-0.241C0.519,-0.231 0.505,-0.226 0.489,-0.226L0.107,-0.226L0.077,-0.326L0.444,-0.326L0.422,-0.306L0.422,-0.333C0.421,-0.352 0.414,-0.37 0.402,-0.385C0.389,-0.4 0.374,-0.413 0.356,-0.422C0.337,-0.431 0.318,-0.435 0.297,-0.435C0.277,-0.435 0.258,-0.432 0.241,-0.427C0.224,-0.422 0.209,-0.413 0.196,-0.4C0.183,-0.387 0.173,-0.37 0.166,-0.349C0.159,-0.328 0.155,-0.301 0.155,-0.268C0.155,-0.232 0.163,-0.202 0.178,-0.177C0.193,-0.152 0.212,-0.133 0.236,-0.12C0.259,-0.107 0.284,-0.1 0.311,-0.1C0.336,-0.1 0.355,-0.102 0.37,-0.106C0.385,-0.11 0.397,-0.115 0.406,-0.121C0.415,-0.126 0.423,-0.131 0.43,-0.135C0.442,-0.141 0.453,-0.144 0.464,-0.144C0.479,-0.144 0.491,-0.139 0.501,-0.129C0.51,-0.119 0.515,-0.107 0.515,-0.094C0.515,-0.076 0.506,-0.06 0.487,-0.045C0.47,-0.03 0.445,-0.017 0.414,-0.007C0.383,0.005 0.35,0.01 0.317,0.01Z" style="fill:white;fill-rule:nonzero;"/>
        </g>
        <g transform="matrix(58.6367,45.1413,-45.1413,58.6367,917.883,413.504)">
            <path d="M0.3,0.01C0.253,0.01 0.211,0.004 0.174,-0.008C0.137,-0.019 0.101,-0.04 0.067,-0.069C0.058,-0.076 0.052,-0.085 0.047,-0.094C0.042,-0.103 0.04,-0.113 0.04,-0.122C0.04,-0.137 0.046,-0.151 0.057,-0.163C0.067,-0.174 0.081,-0.18 0.098,-0.18C0.111,-0.18 0.122,-0.176 0.132,-0.168C0.157,-0.147 0.183,-0.132 0.208,-0.121C0.233,-0.11 0.263,-0.105 0.3,-0.105C0.325,-0.105 0.347,-0.109 0.368,-0.117C0.389,-0.124 0.405,-0.134 0.418,-0.148C0.431,-0.161 0.437,-0.175 0.437,-0.192C0.437,-0.212 0.431,-0.229 0.419,-0.243C0.407,-0.257 0.389,-0.269 0.364,-0.279C0.339,-0.288 0.308,-0.296 0.27,-0.301C0.234,-0.306 0.202,-0.315 0.175,-0.326C0.148,-0.337 0.125,-0.351 0.107,-0.368C0.088,-0.385 0.074,-0.405 0.065,-0.428C0.056,-0.451 0.051,-0.476 0.051,-0.505C0.051,-0.548 0.062,-0.585 0.085,-0.616C0.107,-0.647 0.137,-0.67 0.175,-0.686C0.213,-0.702 0.255,-0.71 0.301,-0.71C0.344,-0.71 0.385,-0.704 0.422,-0.691C0.459,-0.678 0.489,-0.661 0.512,-0.641C0.531,-0.626 0.541,-0.608 0.541,-0.588C0.541,-0.573 0.535,-0.56 0.524,-0.548C0.513,-0.536 0.499,-0.53 0.484,-0.53C0.474,-0.53 0.465,-0.533 0.457,-0.539C0.446,-0.548 0.432,-0.557 0.414,-0.566C0.396,-0.574 0.377,-0.581 0.357,-0.587C0.337,-0.592 0.318,-0.595 0.301,-0.595C0.272,-0.595 0.248,-0.591 0.229,-0.584C0.209,-0.577 0.194,-0.567 0.184,-0.554C0.174,-0.541 0.169,-0.527 0.169,-0.51C0.169,-0.49 0.175,-0.474 0.187,-0.461C0.198,-0.448 0.215,-0.437 0.237,-0.43C0.259,-0.422 0.285,-0.415 0.316,-0.409C0.356,-0.402 0.391,-0.393 0.422,-0.383C0.452,-0.373 0.477,-0.36 0.497,-0.345C0.517,-0.329 0.532,-0.309 0.542,-0.286C0.552,-0.262 0.557,-0.233 0.557,-0.199C0.557,-0.156 0.545,-0.118 0.521,-0.087C0.497,-0.056 0.466,-0.032 0.427,-0.015C0.388,0.002 0.345,0.01 0.3,0.01Z" style="fill:white;fill-rule:nonzero;"/>
        </g>
        <g transform="matrix(53.3097,51.3232,-51.3232,53.3097,951.851,439.563)">
            <path d="M0.351,-0.545C0.4,-0.545 0.438,-0.535 0.464,-0.514C0.489,-0.493 0.507,-0.466 0.517,-0.432C0.526,-0.397 0.531,-0.359 0.531,-0.317L0.531,-0.061C0.531,-0.044 0.525,-0.029 0.514,-0.018C0.503,-0.006 0.488,-0 0.471,-0C0.454,-0 0.439,-0.006 0.428,-0.018C0.417,-0.029 0.411,-0.044 0.411,-0.061L0.411,-0.317C0.411,-0.339 0.408,-0.359 0.403,-0.377C0.397,-0.394 0.387,-0.408 0.372,-0.419C0.357,-0.43 0.336,-0.435 0.309,-0.435C0.282,-0.435 0.26,-0.43 0.242,-0.419C0.223,-0.408 0.209,-0.394 0.2,-0.377C0.19,-0.359 0.185,-0.339 0.185,-0.317L0.185,-0.061C0.185,-0.044 0.179,-0.029 0.168,-0.018C0.157,-0.006 0.142,-0 0.125,-0C0.108,-0 0.093,-0.006 0.082,-0.018C0.071,-0.029 0.065,-0.044 0.065,-0.061L0.065,-0.474C0.065,-0.491 0.071,-0.506 0.082,-0.518C0.093,-0.529 0.108,-0.535 0.125,-0.535C0.142,-0.535 0.157,-0.529 0.168,-0.518C0.179,-0.506 0.185,-0.491 0.185,-0.474L0.185,-0.431L0.17,-0.434C0.176,-0.445 0.185,-0.458 0.196,-0.471C0.207,-0.484 0.221,-0.496 0.236,-0.507C0.251,-0.518 0.269,-0.528 0.288,-0.535C0.307,-0.542 0.328,-0.545 0.351,-0.545Z" style="fill:white;fill-rule:nonzero;"/>
        </g>
        <g transform="matrix(47.2129,56.9819,-56.9819,47.2129,982.637,469.003)">
            <path d="M0.584,-0.267C0.584,-0.212 0.572,-0.164 0.548,-0.123C0.523,-0.081 0.491,-0.048 0.45,-0.025C0.409,-0.002 0.363,0.01 0.312,0.01C0.261,0.01 0.216,-0.002 0.175,-0.025C0.134,-0.048 0.101,-0.081 0.077,-0.123C0.052,-0.164 0.04,-0.212 0.04,-0.267C0.04,-0.322 0.052,-0.37 0.077,-0.412C0.101,-0.453 0.134,-0.486 0.175,-0.51C0.216,-0.533 0.261,-0.545 0.312,-0.545C0.363,-0.545 0.409,-0.533 0.45,-0.51C0.491,-0.486 0.523,-0.453 0.548,-0.412C0.572,-0.37 0.584,-0.322 0.584,-0.267ZM0.464,-0.267C0.464,-0.301 0.457,-0.331 0.444,-0.356C0.43,-0.381 0.411,-0.4 0.389,-0.414C0.366,-0.428 0.34,-0.435 0.312,-0.435C0.284,-0.435 0.259,-0.428 0.236,-0.414C0.213,-0.4 0.194,-0.381 0.181,-0.356C0.167,-0.331 0.16,-0.301 0.16,-0.267C0.16,-0.234 0.167,-0.204 0.181,-0.18C0.194,-0.155 0.213,-0.135 0.236,-0.121C0.259,-0.107 0.284,-0.1 0.312,-0.1C0.34,-0.1 0.366,-0.107 0.389,-0.121C0.411,-0.135 0.43,-0.155 0.444,-0.18C0.457,-0.204 0.464,-0.234 0.464,-0.267Z" style="fill:white;fill-rule:nonzero;"/>
        </g>
        <g transform="matrix(39.4572,62.603,-62.603,39.4572,1011.56,503.228)">
            <path d="M0.681,-0.535C0.696,-0.535 0.71,-0.529 0.721,-0.518C0.732,-0.506 0.738,-0.491 0.738,-0.473C0.738,-0.468 0.738,-0.464 0.737,-0.461C0.736,-0.457 0.735,-0.453 0.734,-0.45L0.581,-0.038C0.576,-0.025 0.568,-0.015 0.556,-0.008C0.544,-0 0.531,0.002 0.518,-0C0.495,-0.001 0.478,-0.014 0.467,-0.038L0.368,-0.323L0.394,-0.322L0.301,-0.038C0.29,-0.014 0.273,-0.001 0.25,-0C0.237,0.002 0.225,-0 0.213,-0.008C0.2,-0.015 0.192,-0.025 0.187,-0.038L0.034,-0.45C0.031,-0.457 0.03,-0.465 0.03,-0.473C0.03,-0.489 0.035,-0.503 0.046,-0.516C0.057,-0.529 0.071,-0.535 0.09,-0.535C0.103,-0.535 0.114,-0.532 0.124,-0.526C0.134,-0.52 0.141,-0.51 0.145,-0.497L0.266,-0.169L0.241,-0.171L0.332,-0.418C0.343,-0.443 0.361,-0.455 0.387,-0.455C0.402,-0.455 0.413,-0.452 0.421,-0.446C0.428,-0.439 0.434,-0.43 0.439,-0.418L0.53,-0.171L0.5,-0.167L0.623,-0.497C0.631,-0.522 0.65,-0.535 0.681,-0.535Z" style="fill:white;fill-rule:nonzero;"/>
        </g>
        <g transform="matrix(30.8114,67.2805,-67.2805,30.8114,1040.93,550.169)">
            <path d="M0.342,-0.545C0.389,-0.545 0.431,-0.533 0.468,-0.51C0.505,-0.486 0.534,-0.453 0.556,-0.412C0.577,-0.371 0.588,-0.323 0.588,-0.268C0.588,-0.213 0.577,-0.165 0.556,-0.124C0.534,-0.082 0.505,-0.049 0.469,-0.026C0.432,-0.002 0.391,0.01 0.346,0.01C0.319,0.01 0.294,0.006 0.271,-0.003C0.248,-0.012 0.227,-0.023 0.21,-0.036C0.192,-0.049 0.178,-0.063 0.169,-0.077C0.159,-0.09 0.154,-0.102 0.154,-0.111L0.185,-0.124L0.185,-0.051C0.185,-0.034 0.179,-0.019 0.168,-0.008C0.157,0.004 0.142,0.01 0.125,0.01C0.108,0.01 0.093,0.004 0.082,-0.007C0.071,-0.018 0.065,-0.033 0.065,-0.051L0.065,-0.679C0.065,-0.696 0.071,-0.711 0.082,-0.723C0.093,-0.734 0.108,-0.74 0.125,-0.74C0.142,-0.74 0.157,-0.734 0.168,-0.723C0.179,-0.711 0.185,-0.696 0.185,-0.679L0.185,-0.425L0.168,-0.434C0.168,-0.443 0.173,-0.453 0.182,-0.466C0.191,-0.478 0.204,-0.49 0.22,-0.503C0.236,-0.515 0.255,-0.525 0.276,-0.533C0.297,-0.541 0.319,-0.545 0.342,-0.545ZM0.327,-0.435C0.298,-0.435 0.272,-0.428 0.25,-0.413C0.228,-0.398 0.211,-0.379 0.199,-0.354C0.186,-0.329 0.18,-0.3 0.18,-0.268C0.18,-0.237 0.186,-0.208 0.199,-0.183C0.211,-0.157 0.228,-0.137 0.25,-0.122C0.272,-0.107 0.298,-0.1 0.327,-0.1C0.356,-0.1 0.382,-0.107 0.404,-0.122C0.425,-0.137 0.442,-0.157 0.455,-0.183C0.467,-0.208 0.473,-0.237 0.473,-0.268C0.473,-0.3 0.467,-0.329 0.455,-0.354C0.442,-0.379 0.425,-0.398 0.404,-0.413C0.382,-0.428 0.356,-0.435 0.327,-0.435Z" style="fill:white;fill-rule:nonzero;"/>
        </g>
        <g transform="matrix(23.1144,70.2974,-70.2974,23.1144,1059.75,591.142)">
            <path d="M0.317,0.01C0.26,0.01 0.211,-0.002 0.17,-0.026C0.128,-0.049 0.096,-0.081 0.074,-0.122C0.051,-0.163 0.04,-0.209 0.04,-0.26C0.04,-0.32 0.052,-0.371 0.077,-0.414C0.101,-0.456 0.133,-0.488 0.172,-0.511C0.211,-0.534 0.253,-0.545 0.297,-0.545C0.331,-0.545 0.363,-0.538 0.394,-0.524C0.424,-0.51 0.451,-0.491 0.474,-0.467C0.497,-0.442 0.516,-0.414 0.53,-0.382C0.543,-0.35 0.55,-0.316 0.55,-0.28C0.549,-0.264 0.543,-0.251 0.531,-0.241C0.519,-0.231 0.505,-0.226 0.489,-0.226L0.107,-0.226L0.077,-0.326L0.444,-0.326L0.422,-0.306L0.422,-0.333C0.421,-0.352 0.414,-0.37 0.402,-0.385C0.389,-0.4 0.374,-0.413 0.356,-0.422C0.337,-0.431 0.318,-0.435 0.297,-0.435C0.277,-0.435 0.258,-0.432 0.241,-0.427C0.224,-0.422 0.209,-0.413 0.196,-0.4C0.183,-0.387 0.173,-0.37 0.166,-0.349C0.159,-0.328 0.155,-0.301 0.155,-0.268C0.155,-0.232 0.163,-0.202 0.178,-0.177C0.193,-0.152 0.212,-0.133 0.236,-0.12C0.259,-0.107 0.284,-0.1 0.311,-0.1C0.336,-0.1 0.355,-0.102 0.37,-0.106C0.385,-0.11 0.397,-0.115 0.406,-0.121C0.415,-0.126 0.423,-0.131 0.43,-0.135C0.442,-0.141 0.453,-0.144 0.464,-0.144C0.479,-0.144 0.491,-0.139 0.501,-0.129C0.51,-0.119 0.515,-0.107 0.515,-0.094C0.515,-0.076 0.506,-0.06 0.487,-0.045C0.47,-0.03 0.445,-0.017 0.414,-0.007C0.383,0.005 0.35,0.01 0.317,0.01Z" style="fill:white;fill-rule:nonzero;"/>
        </g>
        <g transform="matrix(17.4483,71.9135,-71.9135,17.4483,1072.55,631.388)">
            <path d="M0.195,-0.061C0.195,-0.044 0.189,-0.029 0.178,-0.018C0.166,-0.006 0.151,-0 0.134,-0C0.117,-0 0.103,-0.006 0.092,-0.018C0.081,-0.029 0.075,-0.044 0.075,-0.061L0.075,-0.679C0.075,-0.696 0.081,-0.711 0.093,-0.723C0.104,-0.734 0.119,-0.74 0.136,-0.74C0.153,-0.74 0.167,-0.734 0.179,-0.723C0.19,-0.711 0.195,-0.696 0.195,-0.679L0.195,-0.061Z" style="fill:white;fill-rule:nonzero;"/>
        </g>
        <g transform="matrix(13.9546,72.6723,-72.6723,13.9546,1076.94,649.325)">
            <path d="M0.195,-0.061C0.195,-0.044 0.189,-0.029 0.178,-0.018C0.166,-0.006 0.151,-0 0.134,-0C0.117,-0 0.103,-0.006 0.092,-0.018C0.081,-0.029 0.075,-0.044 0.075,-0.061L0.075,-0.679C0.075,-0.696 0.081,-0.711 0.093,-0.723C0.104,-0.734 0.119,-0.74 0.136,-0.74C0.153,-0.74 0.167,-0.734 0.179,-0.723C0.19,-0.711 0.195,-0.696 0.195,-0.679L0.195,-0.061Z" style="fill:white;fill-rule:nonzero;"/>
        </g>
        <g transform="matrix(10.6717,73.2265,-73.2265,10.6717,1080.43,667.49)">
            <path d="M0.178,-0.061C0.178,-0.044 0.172,-0.029 0.161,-0.018C0.15,-0.006 0.135,-0 0.118,-0C0.101,-0 0.086,-0.006 0.075,-0.018C0.064,-0.029 0.058,-0.044 0.058,-0.061L0.058,-0.474C0.058,-0.491 0.064,-0.506 0.075,-0.518C0.086,-0.529 0.101,-0.535 0.118,-0.535C0.135,-0.535 0.15,-0.529 0.161,-0.518C0.172,-0.506 0.178,-0.491 0.178,-0.474L0.178,-0.061ZM0.117,-0.6C0.094,-0.6 0.078,-0.604 0.069,-0.611C0.06,-0.618 0.055,-0.631 0.055,-0.65L0.055,-0.669C0.055,-0.688 0.06,-0.702 0.071,-0.709C0.081,-0.716 0.097,-0.719 0.118,-0.719C0.141,-0.719 0.158,-0.715 0.167,-0.708C0.176,-0.701 0.181,-0.688 0.181,-0.669L0.181,-0.65C0.181,-0.631 0.176,-0.618 0.166,-0.611C0.156,-0.604 0.14,-0.6 0.117,-0.6Z" style="fill:white;fill-rule:nonzero;"/>
        </g>
        <g transform="matrix(5.14012,73.8213,-73.8213,5.14012,1083.28,683.27)">
            <path d="M0.462,-0.535C0.479,-0.535 0.494,-0.529 0.505,-0.518C0.516,-0.506 0.522,-0.491 0.522,-0.474L0.522,-0.22C0.522,-0.149 0.502,-0.093 0.463,-0.052C0.424,-0.011 0.367,0.01 0.293,0.01C0.219,0.01 0.163,-0.011 0.124,-0.052C0.085,-0.093 0.065,-0.149 0.065,-0.22L0.065,-0.474C0.065,-0.491 0.071,-0.506 0.082,-0.518C0.093,-0.529 0.108,-0.535 0.125,-0.535C0.142,-0.535 0.157,-0.529 0.168,-0.518C0.179,-0.506 0.185,-0.491 0.185,-0.474L0.185,-0.22C0.185,-0.179 0.194,-0.149 0.212,-0.13C0.23,-0.11 0.257,-0.1 0.293,-0.1C0.33,-0.1 0.357,-0.11 0.375,-0.13C0.393,-0.149 0.402,-0.179 0.402,-0.22L0.402,-0.474C0.402,-0.491 0.408,-0.506 0.419,-0.518C0.43,-0.529 0.445,-0.535 0.462,-0.535Z" style="fill:white;fill-rule:nonzero;"/>
        </g>
        <g transform="matrix(-5.18393,73.8182,-73.8182,-5.18393,1087.16,725.262)">
            <path d="M0.346,-0.545C0.399,-0.545 0.439,-0.532 0.464,-0.507C0.489,-0.481 0.506,-0.448 0.514,-0.407L0.497,-0.416L0.505,-0.432C0.513,-0.447 0.525,-0.464 0.542,-0.482C0.559,-0.499 0.579,-0.514 0.603,-0.527C0.626,-0.539 0.653,-0.545 0.682,-0.545C0.73,-0.545 0.767,-0.535 0.792,-0.514C0.817,-0.493 0.834,-0.466 0.843,-0.432C0.852,-0.397 0.857,-0.359 0.857,-0.317L0.857,-0.061C0.857,-0.044 0.851,-0.029 0.84,-0.018C0.829,-0.006 0.814,-0 0.797,-0C0.78,-0 0.765,-0.006 0.754,-0.018C0.743,-0.029 0.737,-0.044 0.737,-0.061L0.737,-0.317C0.737,-0.339 0.734,-0.359 0.729,-0.377C0.724,-0.394 0.714,-0.408 0.7,-0.419C0.686,-0.43 0.666,-0.435 0.64,-0.435C0.615,-0.435 0.593,-0.43 0.575,-0.419C0.557,-0.408 0.544,-0.394 0.535,-0.377C0.526,-0.359 0.521,-0.339 0.521,-0.317L0.521,-0.061C0.521,-0.044 0.515,-0.029 0.504,-0.018C0.493,-0.006 0.478,-0 0.461,-0C0.444,-0 0.429,-0.006 0.418,-0.018C0.407,-0.029 0.401,-0.044 0.401,-0.061L0.401,-0.317C0.401,-0.339 0.398,-0.359 0.393,-0.377C0.388,-0.394 0.378,-0.408 0.364,-0.419C0.35,-0.43 0.33,-0.435 0.304,-0.435C0.279,-0.435 0.257,-0.43 0.239,-0.419C0.221,-0.408 0.208,-0.394 0.199,-0.377C0.19,-0.359 0.185,-0.339 0.185,-0.317L0.185,-0.061C0.185,-0.044 0.179,-0.029 0.168,-0.018C0.157,-0.006 0.142,-0 0.125,-0C0.108,-0 0.093,-0.006 0.082,-0.018C0.071,-0.029 0.065,-0.044 0.065,-0.061L0.065,-0.474C0.065,-0.491 0.071,-0.506 0.082,-0.518C0.093,-0.529 0.108,-0.535 0.125,-0.535C0.142,-0.535 0.157,-0.529 0.168,-0.518C0.179,-0.506 0.185,-0.491 0.185,-0.474L0.185,-0.431L0.17,-0.434C0.176,-0.445 0.184,-0.458 0.195,-0.471C0.206,-0.484 0.219,-0.496 0.234,-0.507C0.249,-0.518 0.266,-0.528 0.285,-0.535C0.304,-0.542 0.324,-0.545 0.346,-0.545Z" style="fill:white;fill-rule:nonzero;"/>
        </g>
    </g>
    <g transform="matrix(-0.902011,5.55112e-17,5.55112e-17,0.902011,1194.74,360.902)">
        <path d="M389.858,397.829C390.019,397.334 390.48,397 391,397C391.52,397 391.981,397.334 392.142,397.829L398.792,418.208L419.171,424.858C419.666,425.019 420,425.48 420,426C420,426.52 419.666,426.981 419.171,427.142L398.792,433.792L392.142,454.171C391.981,454.666 391.52,455 391,455C390.48,455 390.019,454.666 389.858,454.171L383.208,433.792L362.829,427.142C362.334,426.981 362,426.52 362,426C362,425.48 362.334,425.019 362.829,424.858L383.208,418.208L389.858,397.829Z" style="fill:white;"/>
    </g>
    <g transform="matrix(-0.902011,-1.38778e-16,-1.38778e-16,0.902011,1095.25,458.11)">
        <path d="M389.858,397.829C390.019,397.334 390.48,397 391,397C391.52,397 391.981,397.334 392.142,397.829L398.792,418.208L419.171,424.858C419.666,425.019 420,425.48 420,426C420,426.52 419.666,426.981 419.171,427.142L398.792,433.792L392.142,454.171C391.981,454.666 391.52,455 391,455C390.48,455 390.019,454.666 389.858,454.171L383.208,433.792L362.829,427.142C362.334,426.981 362,426.52 362,426C362,425.48 362.334,425.019 362.829,424.858L383.208,418.208L389.858,397.829Z" style="fill:white;"/>
    </g>
    <g transform="matrix(-0.902011,5.55112e-17,5.55112e-17,0.902011,1149.41,413.709)">
        <path d="M389.858,397.829C390.019,397.334 390.48,397 391,397C391.52,397 391.981,397.334 392.142,397.829L398.792,418.208L419.171,424.858C419.666,425.019 420,425.48 420,426C420,426.52 419.666,426.981 419.171,427.142L398.792,433.792L392.142,454.171C391.981,454.666 391.52,455 391,455C390.48,455 390.019,454.666 389.858,454.171L383.208,433.792L362.829,427.142C362.334,426.981 362,426.52 362,426C362,425.48 362.334,425.019 362.829,424.858L383.208,418.208L389.858,397.829Z" style="fill:white;"/>
    </g>
    <g transform="matrix(-0.902011,5.55112e-17,5.55112e-17,0.902011,1230.33,300.827)">
        <path d="M389.858,397.829C390.019,397.334 390.48,397 391,397C391.52,397 391.981,397.334 392.142,397.829L398.792,418.208L419.171,424.858C419.666,425.019 420,425.48 420,426C420,426.52 419.666,426.981 419.171,427.142L398.792,433.792L392.142,454.171C391.981,454.666 391.52,455 391,455C390.48,455 390.019,454.666 389.858,454.171L383.208,433.792L362.829,427.142C362.334,426.981 362,426.52 362,426C362,425.48 362.334,425.019 362.829,424.858L383.208,418.208L389.858,397.829Z" style="fill:white;"/>
    </g>
    <g transform="matrix(-0.902011,2.77556e-17,2.77556e-17,0.902011,1254.88,235.903)">
        <path d="M389.858,397.829C390.019,397.334 390.48,397 391,397C391.52,397 391.981,397.334 392.142,397.829L398.792,418.208L419.171,424.858C419.666,425.019 420,425.48 420,426C420,426.52 419.666,426.981 419.171,427.142L398.792,433.792L392.142,454.171C391.981,454.666 391.52,455 391,455C390.48,455 390.019,454.666 389.858,454.171L383.208,433.792L362.829,427.142C362.334,426.981 362,426.52 362,426C362,425.48 362.334,425.019 362.829,424.858L383.208,418.208L389.858,397.829Z" style="fill:white;"/>
    </g>
    <g transform="matrix(0.902011,5.55112e-17,-5.55112e-17,0.902011,-170.734,360.902)">
        <path d="M389.858,397.829C390.019,397.334 390.48,397 391,397C391.52,397 391.981,397.334 392.142,397.829L398.792,418.208L419.171,424.858C419.666,425.019 420,425.48 420,426C420,426.52 419.666,426.981 419.171,427.142L398.792,433.792L392.142,454.171C391.981,454.666 391.52,455 391,455C390.48,455 390.019,454.666 389.858,454.171L383.208,433.792L362.829,427.142C362.334,426.981 362,426.52 362,426C362,425.48 362.334,425.019 362.829,424.858L383.208,418.208L389.858,397.829Z" style="fill:white;"/>
    </g>
    <g transform="matrix(0.902011,-1.38778e-16,1.38778e-16,0.902011,-71.2468,458.11)">
        <path d="M389.858,397.829C390.019,397.334 390.48,397 391,397C391.52,397 391.981,397.334 392.142,397.829L398.792,418.208L419.171,424.858C419.666,425.019 420,425.48 420,426C420,426.52 419.666,426.981 419.171,427.142L398.792,433.792L392.142,454.171C391.981,454.666 391.52,455 391,455C390.48,455 390.019,454.666 389.858,454.171L383.208,433.792L362.829,427.142C362.334,426.981 362,426.52 362,426C362,425.48 362.334,425.019 362.829,424.858L383.208,418.208L389.858,397.829Z" style="fill:white;"/>
    </g>
    <g transform="matrix(0.902011,5.55112e-17,-5.55112e-17,0.902011,-125.406,413.709)">
        <path d="M389.858,397.829C390.019,397.334 390.48,397 391,397C391.52,397 391.981,397.334 392.142,397.829L398.792,418.208L419.171,424.858C419.666,425.019 420,425.48 420,426C420,426.52 419.666,426.981 419.171,427.142L398.792,433.792L392.142,454.171C391.981,454.666 391.52,455 391,455C390.48,455 390.019,454.666 389.858,454.171L383.208,433.792L362.829,427.142C362.334,426.981 362,426.52 362,426C362,425.48 362.334,425.019 362.829,424.858L383.208,418.208L389.858,397.829Z" style="fill:white;"/>
    </g>
    <g transform="matrix(0.902011,5.55112e-17,-5.55112e-17,0.902011,-206.326,300.827)">
        <path d="M389.858,397.829C390.019,397.334 390.48,397 391,397C391.52,397 391.981,397.334 392.142,397.829L398.792,418.208L419.171,424.858C419.666,425.019 420,425.48 420,426C420,426.52 419.666,426.981 419.171,427.142L398.792,433.792L392.142,454.171C391.981,454.666 391.52,455 391,455C390.48,455 390.019,454.666 389.858,454.171L383.208,433.792L362.829,427.142C362.334,426.981 362,426.52 362,426C362,425.48 362.334,425.019 362.829,424.858L383.208,418.208L389.858,397.829Z" style="fill:white;"/>
    </g>
    <g transform="matrix(0.902011,2.77556e-17,-2.77556e-17,0.902011,-230.874,235.903)">
        <path d="M389.858,397.829C390.019,397.334 390.48,397 391,397C391.52,397 391.981,397.334 392.142,397.829L398.792,418.208L419.171,424.858C419.666,425.019 420,425.48 420,426C420,426.52 419.666,426.981 419.171,427.142L398.792,433.792L392.142,454.171C391.981,454.666 391.52,455 391,455C390.48,455 390.019,454.666 389.858,454.171L383.208,433.792L362.829,427.142C362.334,426.981 362,426.52 362,426C362,425.48 362.334,425.019 362.829,424.858L383.208,418.208L389.858,397.829Z" style="fill:white;"/>
    </g>
    <g id="Primrose" transform="matrix(1,0,0,1,7,8)">
        <g transform="matrix(2.13063,0,0,-2.13063,-297.517,1119.39)">
            <path d="M394.5,174.41C388.348,175.812 386.605,176.672 382.777,180.195C374.691,187.645 365.141,205.758 361.129,221.262C360.02,225.547 358.918,228.449 358.008,229.48C357.848,229.66 356.293,228.426 354.547,226.734C350.988,223.289 338.73,215.992 332.777,213.781C325.918,211.234 315.555,209.121 309.375,209.012C304.508,208.922 302.723,209.223 299.918,210.605C294.602,213.227 292.672,219.113 295.133,225.215C295.551,226.25 295.273,226.527 293.828,226.527C291.102,226.527 286.109,231.516 284.945,235.402C283.676,239.652 284.809,245.344 288.383,252.687C289.82,255.648 291,258.215 291,258.395C291,258.578 292.91,262.668 295.246,267.488C299.766,276.82 302.27,280.242 306.48,282.844C309.363,284.625 309.25,284.988 304.98,287.578C296.242,292.879 286.348,302.605 282.508,309.668C280.27,313.785 278.969,321.207 280.336,322.051C280.84,322.363 280.641,323.516 279.766,325.344C278.16,328.695 276.875,342.027 278.156,342.027C278.605,342.027 279.184,342.867 279.438,343.891C280.051,346.336 284.199,348.836 288.188,349.164C290.41,349.348 291.277,349.727 291.059,350.414C290.426,352.379 290.98,355.73 292.312,358.012C296.387,364.988 318.809,368.383 331.5,363.945C333.77,363.152 336.805,362.281 338.25,362.016C339.695,361.746 343.816,359.875 347.414,357.859C352.07,355.246 354.145,354.437 354.625,355.047C354.996,355.519 356.016,357.844 356.891,360.219C362.543,375.555 374.344,389.719 385.859,394.992C393.531,398.504 401.355,396.68 403.602,390.855L404.297,389.059L406,390.66C408.305,392.824 414.23,394.519 417.59,393.973C423.23,393.059 429,384.945 429,377.934C429,376.094 429.73,374.555 431.621,372.395C435.168,368.344 435.848,365.754 436.297,354.605C436.711,344.184 435.766,335.488 433.5,328.898C432.719,326.633 432.148,324.742 432.227,324.695C432.309,324.648 434.398,324.492 436.875,324.352C439.352,324.211 444.414,323.215 448.125,322.137C462.801,317.875 470.523,312.258 475.289,302.379C477.797,297.176 478.051,296.07 478.066,290.277C478.074,286.773 477.801,283.145 477.453,282.215C476.973,280.922 477.098,280.527 477.984,280.527C479.594,280.527 482.25,276.945 482.25,274.777C482.25,268.492 475.906,262.164 463.312,255.887C453.086,250.789 443.035,247.793 434.238,247.215C430.242,246.953 428.66,246.566 428.746,245.875C428.812,245.34 429.234,243.086 429.684,240.863C430.715,235.754 430.738,219.82 429.727,211.508C427.973,197.141 422.277,183.523 416.535,179.973C413.723,178.234 411.773,178.512 409.484,180.969C408.676,181.836 407.918,182.398 407.797,182.223C407.68,182.047 407.004,180.637 406.301,179.086C405.109,176.469 401.098,173.16 399.375,173.379C398.961,173.43 396.77,173.895 394.5,174.41Z" style="fill:white;stroke:black;stroke-width:2.82px;"/>
        </g>
        <g transform="matrix(0.889488,0,0,-0.889488,174.046,765.569)">
            <path d="M394.5,174.41C388.348,175.812 386.605,176.672 382.777,180.195C374.691,187.645 365.141,205.758 361.129,221.262C360.02,225.547 358.918,228.449 358.008,229.48C357.848,229.66 356.293,228.426 354.547,226.734C350.988,223.289 338.73,215.992 332.777,213.781C325.918,211.234 315.555,209.121 309.375,209.012C304.508,208.922 302.723,209.223 299.918,210.605C294.602,213.227 292.672,219.113 295.133,225.215C295.551,226.25 295.273,226.527 293.828,226.527C291.102,226.527 286.109,231.516 284.945,235.402C283.676,239.652 284.809,245.344 288.383,252.687C289.82,255.648 291,258.215 291,258.395C291,258.578 292.91,262.668 295.246,267.488C299.766,276.82 302.27,280.242 306.48,282.844C309.363,284.625 309.25,284.988 304.98,287.578C296.242,292.879 286.348,302.605 282.508,309.668C280.27,313.785 278.969,321.207 280.336,322.051C280.84,322.363 280.641,323.516 279.766,325.344C278.16,328.695 276.875,342.027 278.156,342.027C278.605,342.027 279.184,342.867 279.438,343.891C280.051,346.336 284.199,348.836 288.188,349.164C290.41,349.348 291.277,349.727 291.059,350.414C290.426,352.379 290.98,355.73 292.312,358.012C296.387,364.988 318.809,368.383 331.5,363.945C333.77,363.152 336.805,362.281 338.25,362.016C339.695,361.746 343.816,359.875 347.414,357.859C352.07,355.246 354.145,354.437 354.625,355.047C354.996,355.519 356.016,357.844 356.891,360.219C362.543,375.555 374.344,389.719 385.859,394.992C393.531,398.504 401.355,396.68 403.602,390.855L404.297,389.059L406,390.66C408.305,392.824 414.23,394.519 417.59,393.973C423.23,393.059 429,384.945 429,377.934C429,376.094 429.73,374.555 431.621,372.395C435.168,368.344 435.848,365.754 436.297,354.605C436.711,344.184 435.766,335.488 433.5,328.898C432.719,326.633 432.148,324.742 432.227,324.695C432.309,324.648 434.398,324.492 436.875,324.352C439.352,324.211 444.414,323.215 448.125,322.137C462.801,317.875 470.523,312.258 475.289,302.379C477.797,297.176 478.051,296.07 478.066,290.277C478.074,286.773 477.801,283.145 477.453,282.215C476.973,280.922 477.098,280.527 477.984,280.527C479.594,280.527 482.25,276.945 482.25,274.777C482.25,268.492 475.906,262.164 463.312,255.887C453.086,250.789 443.035,247.793 434.238,247.215C430.242,246.953 428.66,246.566 428.746,245.875C428.812,245.34 429.234,243.086 429.684,240.863C430.715,235.754 430.738,219.82 429.727,211.508C427.973,197.141 422.277,183.523 416.535,179.973C413.723,178.234 411.773,178.512 409.484,180.969C408.676,181.836 407.918,182.398 407.797,182.223C407.68,182.047 407.004,180.637 406.301,179.086C405.109,176.469 401.098,173.16 399.375,173.379C398.961,173.43 396.77,173.895 394.5,174.41Z" style="fill:rgb(255,232,182);stroke:black;stroke-width:6.75px;stroke-linejoin:round;stroke-miterlimit:2;"/>
        </g>
        <path d="M616,595C616,595 609.555,561.343 556,548" style="fill:none;stroke:black;stroke-width:6px;stroke-linecap:round;"/>
        <path d="M457,364C457,364 453.445,408.919 489,449" style="fill:none;stroke:black;stroke-width:6px;stroke-linecap:round;"/>
        <path d="M359,512C359,512 395.727,535.201 448,512" style="fill:none;stroke:black;stroke-width:6px;stroke-linecap:round;"/>
        <path d="M465,631C465,631 492.764,614.076 492,562" style="fill:none;stroke:black;stroke-width:6px;stroke-linecap:round;"/>
        <path d="M624,428C624,428 589.63,435.868 559,476" style="fill:none;stroke:black;stroke-width:6px;stroke-linecap:round;"/>
    </g>
</svg>
