<?xml version="1.0" encoding="UTF-8" standalone="no"?>
<!DOCTYPE svg PUBLIC "-//W3C//DTD SVG 1.1//EN" "http://www.w3.org/Graphics/SVG/1.1/DTD/svg11.dtd">
<svg width="100%" height="100%" viewBox="0 0 320 132" version="1.1" xmlns="http://www.w3.org/2000/svg" xmlns:xlink="http://www.w3.org/1999/xlink" xml:space="preserve" xmlns:serif="http://www.serif.com/" style="fill-rule:evenodd;clip-rule:evenodd;stroke-miterlimit:1;">
    <g transform="matrix(0.0980325,0,0,0.0980325,50.1927,66)">
        <g transform="matrix(1,0,0,1,-512,-512)">
            <clipPath id="_clip1">
                <rect x="0" y="0" width="1024" height="1024"/>
            </clipPath>
            <g clip-path="url(#_clip1)">
                <g id="Background" transform="matrix(2.63239,0,0,2.63239,-738.702,-821.306)">
                    <circle cx="475.5" cy="506.5" r="194.5" style="fill:rgb(255,175,200);"/>
                </g>
                <g id="OuterRing" transform="matrix(2.63239,0,0,2.63239,-738.702,-821.306)">
                    <path d="M475.5,312C582.847,312 670,399.153 670,506.5C670,613.847 582.847,701 475.5,701C368.153,701 281,613.847 281,506.5C281,399.153 368.153,312 475.5,312ZM475.5,327.719C574.172,327.719 654.281,407.828 654.281,506.5C654.281,605.172 574.172,685.281 475.5,685.281C376.828,685.281 296.719,605.172 296.719,506.5C296.719,407.828 376.828,327.719 475.5,327.719Z" style="fill:white;fill-opacity:0.5;"/>
                </g>
                <g id="InnerRing" transform="matrix(1.73779,0,0,1.73779,-313.319,-368.19)">
                    <path d="M475.5,312C582.847,312 670,399.153 670,506.5C670,613.847 582.847,701 475.5,701C368.153,701 281,613.847 281,506.5C281,399.153 368.153,312 475.5,312ZM475.5,327.719C574.172,327.719 654.281,407.828 654.281,506.5C654.281,605.172 574.172,685.281 475.5,685.281C376.828,685.281 296.719,605.172 296.719,506.5C296.719,407.828 376.828,327.719 475.5,327.719Z" style="fill:white;fill-opacity:0.5;"/>
                </g>
                <g id="BottomText" transform="matrix(1,0,0,1,-189,-215)">
                    <g transform="matrix(73.272,10.3544,-10.3544,73.272,621.143,1144.93)">
                        <path d="M0.469,-0.075C0.479,-0.075 0.488,-0.071 0.496,-0.064C0.503,-0.057 0.507,-0.048 0.507,-0.037C0.507,-0.026 0.503,-0.018 0.496,-0.011C0.488,-0.004 0.479,-0 0.469,-0L0.106,-0C0.094,-0 0.084,-0.003 0.077,-0.01C0.069,-0.017 0.065,-0.027 0.065,-0.039C0.065,-0.049 0.069,-0.059 0.077,-0.068L0.303,-0.315C0.336,-0.351 0.361,-0.384 0.378,-0.416C0.395,-0.448 0.404,-0.476 0.404,-0.501C0.404,-0.541 0.391,-0.574 0.367,-0.598C0.343,-0.623 0.31,-0.635 0.27,-0.635C0.252,-0.635 0.234,-0.631 0.216,-0.624C0.198,-0.616 0.181,-0.606 0.167,-0.593C0.152,-0.58 0.14,-0.565 0.131,-0.549C0.125,-0.54 0.12,-0.535 0.114,-0.532C0.109,-0.53 0.103,-0.529 0.097,-0.529C0.087,-0.529 0.078,-0.532 0.07,-0.539C0.062,-0.546 0.058,-0.554 0.058,-0.564C0.058,-0.571 0.06,-0.578 0.064,-0.584C0.068,-0.591 0.073,-0.598 0.08,-0.606C0.094,-0.625 0.111,-0.643 0.132,-0.659C0.153,-0.674 0.176,-0.687 0.201,-0.696C0.226,-0.705 0.251,-0.71 0.275,-0.71C0.318,-0.71 0.355,-0.702 0.387,-0.685C0.418,-0.668 0.443,-0.644 0.46,-0.614C0.477,-0.583 0.486,-0.547 0.486,-0.506C0.486,-0.47 0.475,-0.431 0.454,-0.389C0.432,-0.346 0.401,-0.303 0.36,-0.259L0.185,-0.065L0.175,-0.075L0.469,-0.075Z" style="fill:white;fill-rule:nonzero;"/>
                    </g>
                    <g transform="matrix(73.9384,3.01961,-3.01961,73.9384,661.379,1150.74)">
                        <path d="M0.301,0.01C0.245,0.01 0.199,-0.006 0.162,-0.037C0.125,-0.068 0.097,-0.111 0.078,-0.166C0.059,-0.22 0.05,-0.282 0.05,-0.35C0.05,-0.419 0.059,-0.481 0.078,-0.535C0.097,-0.589 0.125,-0.632 0.162,-0.663C0.199,-0.694 0.245,-0.71 0.301,-0.71C0.356,-0.71 0.402,-0.694 0.439,-0.663C0.476,-0.632 0.504,-0.589 0.523,-0.535C0.542,-0.481 0.551,-0.419 0.551,-0.35C0.551,-0.282 0.542,-0.22 0.523,-0.166C0.504,-0.111 0.476,-0.068 0.439,-0.037C0.402,-0.006 0.356,0.01 0.301,0.01ZM0.301,-0.071C0.336,-0.071 0.366,-0.082 0.39,-0.105C0.414,-0.127 0.433,-0.159 0.446,-0.201C0.459,-0.243 0.465,-0.293 0.465,-0.35C0.465,-0.408 0.459,-0.458 0.446,-0.5C0.433,-0.541 0.414,-0.573 0.39,-0.596C0.366,-0.618 0.336,-0.629 0.301,-0.629C0.266,-0.629 0.236,-0.618 0.211,-0.596C0.187,-0.573 0.168,-0.541 0.155,-0.5C0.142,-0.458 0.136,-0.408 0.136,-0.35C0.136,-0.293 0.142,-0.243 0.155,-0.201C0.168,-0.159 0.187,-0.127 0.211,-0.105C0.236,-0.082 0.266,-0.071 0.301,-0.071Z" style="fill:white;fill-rule:nonzero;"/>
                    </g>
                    <g transform="matrix(73.8578,-4.58498,4.58498,73.8578,705.177,1152.56)">
                        <path d="M0.301,0.01C0.245,0.01 0.199,-0.006 0.162,-0.037C0.125,-0.068 0.097,-0.111 0.078,-0.166C0.059,-0.22 0.05,-0.282 0.05,-0.35C0.05,-0.419 0.059,-0.481 0.078,-0.535C0.097,-0.589 0.125,-0.632 0.162,-0.663C0.199,-0.694 0.245,-0.71 0.301,-0.71C0.356,-0.71 0.402,-0.694 0.439,-0.663C0.476,-0.632 0.504,-0.589 0.523,-0.535C0.542,-0.481 0.551,-0.419 0.551,-0.35C0.551,-0.282 0.542,-0.22 0.523,-0.166C0.504,-0.111 0.476,-0.068 0.439,-0.037C0.402,-0.006 0.356,0.01 0.301,0.01ZM0.301,-0.071C0.336,-0.071 0.366,-0.082 0.39,-0.105C0.414,-0.127 0.433,-0.159 0.446,-0.201C0.459,-0.243 0.465,-0.293 0.465,-0.35C0.465,-0.408 0.459,-0.458 0.446,-0.5C0.433,-0.541 0.414,-0.573 0.39,-0.596C0.366,-0.618 0.336,-0.629 0.301,-0.629C0.266,-0.629 0.236,-0.618 0.211,-0.596C0.187,-0.573 0.168,-0.541 0.155,-0.5C0.142,-0.458 0.136,-0.408 0.136,-0.35C0.136,-0.293 0.142,-0.243 0.155,-0.201C0.168,-0.159 0.187,-0.127 0.211,-0.105C0.236,-0.082 0.266,-0.071 0.301,-0.071Z" style="fill:white;fill-rule:nonzero;"/>
                    </g>
                    <g transform="matrix(73.1358,-11.2766,11.2766,73.1358,745.119,1150.21)">
                        <path d="M0.185,0.004C0.174,0.004 0.165,-0 0.156,-0.007C0.148,-0.014 0.144,-0.024 0.144,-0.035C0.144,-0.041 0.145,-0.047 0.148,-0.053L0.406,-0.638L0.418,-0.62L0.096,-0.62C0.085,-0.62 0.076,-0.623 0.069,-0.63C0.061,-0.637 0.058,-0.647 0.058,-0.658C0.058,-0.668 0.061,-0.677 0.069,-0.684C0.076,-0.691 0.085,-0.695 0.096,-0.695L0.457,-0.695C0.469,-0.695 0.479,-0.691 0.486,-0.684C0.494,-0.677 0.498,-0.667 0.498,-0.656C0.498,-0.65 0.496,-0.644 0.494,-0.638L0.223,-0.022C0.22,-0.014 0.215,-0.008 0.208,-0.003C0.201,0.001 0.193,0.004 0.185,0.004Z" style="fill:white;fill-rule:nonzero;"/>
                    </g>
                </g>
                <g id="TopText" transform="matrix(1,0,0,1,-189,-214)">
                    <g transform="matrix(1.64238,-73.9818,73.9818,1.64238,315.868,745.915)">
                        <path d="M0.305,-0C0.293,-0 0.283,-0.004 0.275,-0.012C0.267,-0.02 0.263,-0.029 0.263,-0.041L0.263,-0.659L0.348,-0.659L0.348,-0.041C0.348,-0.029 0.344,-0.02 0.336,-0.012C0.328,-0.004 0.317,-0 0.305,-0ZM0.073,-0.624C0.062,-0.624 0.052,-0.627 0.044,-0.634C0.036,-0.641 0.033,-0.651 0.033,-0.662C0.033,-0.673 0.036,-0.683 0.044,-0.69C0.052,-0.697 0.062,-0.7 0.073,-0.7L0.538,-0.7C0.549,-0.7 0.559,-0.696 0.567,-0.689C0.575,-0.682 0.579,-0.673 0.579,-0.662C0.579,-0.65 0.575,-0.641 0.567,-0.634C0.559,-0.627 0.549,-0.624 0.538,-0.624L0.073,-0.624Z" style="fill:white;fill-rule:nonzero;"/>
                    </g>
                    <g transform="matrix(9.71895,-73.359,73.359,9.71895,316.831,702.129)">
                        <path d="M0.324,-0.525C0.368,-0.525 0.402,-0.516 0.428,-0.497C0.454,-0.478 0.472,-0.452 0.483,-0.42C0.494,-0.388 0.5,-0.353 0.5,-0.315L0.5,-0.041C0.5,-0.029 0.496,-0.02 0.489,-0.012C0.481,-0.004 0.471,-0 0.46,-0C0.448,-0 0.439,-0.004 0.431,-0.012C0.424,-0.02 0.42,-0.029 0.42,-0.041L0.42,-0.315C0.42,-0.34 0.416,-0.363 0.409,-0.383C0.402,-0.404 0.39,-0.42 0.373,-0.433C0.356,-0.445 0.332,-0.451 0.303,-0.451C0.276,-0.451 0.251,-0.445 0.228,-0.433C0.205,-0.42 0.187,-0.404 0.174,-0.383C0.161,-0.363 0.154,-0.34 0.154,-0.315L0.154,-0.041C0.154,-0.029 0.15,-0.02 0.143,-0.012C0.135,-0.004 0.125,-0 0.114,-0C0.102,-0 0.093,-0.004 0.085,-0.012C0.078,-0.02 0.074,-0.029 0.074,-0.041L0.074,-0.7C0.074,-0.711 0.078,-0.72 0.086,-0.728C0.093,-0.736 0.103,-0.74 0.114,-0.74C0.126,-0.74 0.135,-0.736 0.143,-0.728C0.15,-0.72 0.154,-0.711 0.154,-0.7L0.154,-0.401L0.134,-0.379C0.137,-0.396 0.144,-0.414 0.156,-0.431C0.167,-0.449 0.181,-0.465 0.199,-0.479C0.216,-0.493 0.236,-0.504 0.257,-0.513C0.278,-0.521 0.301,-0.525 0.324,-0.525Z" style="fill:white;fill-rule:nonzero;"/>
                    </g>
                    <g transform="matrix(17.5044,-71.8999,71.8999,17.5044,322.15,661.406)">
                        <path d="M0.313,0.01C0.259,0.01 0.213,-0.001 0.173,-0.024C0.133,-0.046 0.101,-0.077 0.079,-0.117C0.057,-0.157 0.046,-0.203 0.046,-0.255C0.046,-0.313 0.057,-0.362 0.081,-0.403C0.103,-0.444 0.133,-0.475 0.17,-0.497C0.207,-0.519 0.246,-0.53 0.288,-0.53C0.319,-0.53 0.348,-0.524 0.377,-0.513C0.405,-0.501 0.431,-0.485 0.453,-0.463C0.475,-0.441 0.493,-0.415 0.506,-0.385C0.519,-0.355 0.526,-0.321 0.527,-0.284C0.527,-0.273 0.523,-0.264 0.515,-0.257C0.507,-0.25 0.497,-0.246 0.487,-0.246L0.092,-0.246L0.074,-0.315L0.459,-0.315L0.443,-0.301L0.443,-0.323C0.44,-0.35 0.431,-0.374 0.416,-0.394C0.4,-0.413 0.381,-0.428 0.358,-0.439C0.336,-0.45 0.312,-0.455 0.288,-0.455C0.268,-0.455 0.248,-0.451 0.228,-0.444C0.208,-0.437 0.191,-0.426 0.175,-0.41C0.159,-0.395 0.147,-0.375 0.137,-0.35C0.128,-0.325 0.123,-0.296 0.123,-0.261C0.123,-0.222 0.131,-0.188 0.147,-0.159C0.162,-0.129 0.184,-0.106 0.212,-0.089C0.24,-0.072 0.273,-0.064 0.31,-0.064C0.333,-0.064 0.354,-0.067 0.371,-0.073C0.388,-0.079 0.403,-0.086 0.416,-0.095C0.428,-0.104 0.439,-0.114 0.448,-0.123C0.456,-0.129 0.465,-0.132 0.473,-0.132C0.483,-0.132 0.491,-0.129 0.497,-0.122C0.504,-0.115 0.507,-0.107 0.507,-0.098C0.507,-0.087 0.502,-0.077 0.491,-0.068C0.472,-0.047 0.447,-0.029 0.415,-0.013C0.383,0.002 0.349,0.01 0.313,0.01Z" style="fill:white;fill-rule:nonzero;"/>
                    </g>
                    <g transform="matrix(28.7399,-68.191,68.191,28.7399,337.505,603.713)">
                        <path d="M0.128,-0.7L0.484,-0.7C0.495,-0.7 0.505,-0.696 0.513,-0.689C0.521,-0.681 0.525,-0.672 0.525,-0.661C0.525,-0.649 0.521,-0.64 0.513,-0.633C0.505,-0.626 0.495,-0.623 0.484,-0.623L0.162,-0.623L0.171,-0.64L0.171,-0.387L0.161,-0.398L0.439,-0.398C0.45,-0.398 0.46,-0.394 0.468,-0.387C0.476,-0.379 0.48,-0.37 0.48,-0.359C0.48,-0.347 0.476,-0.338 0.468,-0.331C0.46,-0.324 0.45,-0.321 0.439,-0.321L0.164,-0.321L0.171,-0.33L0.171,-0.071L0.165,-0.078L0.484,-0.078C0.495,-0.078 0.505,-0.074 0.513,-0.066C0.521,-0.058 0.525,-0.049 0.525,-0.039C0.525,-0.027 0.521,-0.018 0.513,-0.011C0.505,-0.004 0.495,-0 0.484,-0L0.128,-0C0.117,-0 0.107,-0.004 0.099,-0.012C0.091,-0.02 0.088,-0.029 0.088,-0.041L0.088,-0.66C0.088,-0.671 0.091,-0.68 0.099,-0.688C0.107,-0.696 0.117,-0.7 0.128,-0.7Z" style="fill:white;fill-rule:nonzero;"/>
                    </g>
                    <g transform="matrix(37.6971,-63.6783,63.6783,37.6971,352.435,565.574)">
                        <path d="M0.321,-0.525C0.366,-0.525 0.403,-0.514 0.431,-0.491C0.459,-0.468 0.478,-0.435 0.488,-0.393L0.473,-0.393L0.48,-0.411C0.488,-0.429 0.502,-0.447 0.521,-0.465C0.54,-0.482 0.562,-0.497 0.588,-0.508C0.613,-0.519 0.639,-0.525 0.667,-0.525C0.711,-0.525 0.745,-0.516 0.771,-0.497C0.796,-0.478 0.814,-0.452 0.825,-0.421C0.836,-0.389 0.842,-0.353 0.842,-0.314L0.842,-0.041C0.842,-0.029 0.838,-0.02 0.83,-0.012C0.823,-0.004 0.813,-0 0.802,-0C0.79,-0 0.78,-0.004 0.773,-0.012C0.765,-0.02 0.762,-0.029 0.762,-0.041L0.762,-0.312C0.762,-0.338 0.758,-0.361 0.75,-0.382C0.743,-0.403 0.73,-0.42 0.713,-0.432C0.696,-0.445 0.673,-0.451 0.644,-0.451C0.616,-0.451 0.592,-0.445 0.569,-0.432C0.546,-0.42 0.528,-0.403 0.515,-0.382C0.502,-0.361 0.495,-0.338 0.495,-0.312L0.495,-0.041C0.495,-0.029 0.491,-0.02 0.484,-0.012C0.476,-0.004 0.467,-0 0.455,-0C0.443,-0 0.434,-0.004 0.426,-0.012C0.419,-0.02 0.415,-0.029 0.415,-0.041L0.415,-0.315C0.415,-0.34 0.411,-0.363 0.404,-0.383C0.397,-0.404 0.385,-0.42 0.369,-0.433C0.352,-0.445 0.329,-0.451 0.3,-0.451C0.273,-0.451 0.249,-0.445 0.227,-0.433C0.205,-0.42 0.187,-0.404 0.174,-0.383C0.161,-0.363 0.154,-0.34 0.154,-0.315L0.154,-0.041C0.154,-0.029 0.15,-0.02 0.143,-0.012C0.135,-0.004 0.125,-0 0.114,-0C0.102,-0 0.093,-0.004 0.085,-0.012C0.078,-0.02 0.074,-0.029 0.074,-0.041L0.074,-0.477C0.074,-0.488 0.078,-0.497 0.086,-0.505C0.093,-0.513 0.103,-0.517 0.114,-0.517C0.126,-0.517 0.135,-0.513 0.143,-0.505C0.15,-0.497 0.154,-0.488 0.154,-0.477L0.154,-0.401L0.132,-0.377C0.135,-0.394 0.141,-0.411 0.153,-0.429C0.164,-0.446 0.178,-0.462 0.195,-0.477C0.212,-0.491 0.231,-0.503 0.253,-0.512C0.274,-0.521 0.297,-0.525 0.321,-0.525Z" style="fill:white;fill-rule:nonzero;"/>
                    </g>
                    <g transform="matrix(46.5079,-57.5588,57.5588,46.5079,386.697,508.931)">
                        <path d="M0.329,-0.53C0.374,-0.53 0.415,-0.519 0.451,-0.496C0.487,-0.472 0.515,-0.441 0.536,-0.401C0.557,-0.361 0.568,-0.314 0.568,-0.262C0.568,-0.209 0.557,-0.163 0.536,-0.122C0.515,-0.081 0.487,-0.049 0.451,-0.025C0.415,-0.002 0.375,0.01 0.331,0.01C0.306,0.01 0.283,0.006 0.261,-0.002C0.239,-0.009 0.22,-0.019 0.202,-0.032C0.185,-0.045 0.17,-0.059 0.158,-0.075C0.146,-0.091 0.137,-0.106 0.132,-0.122L0.154,-0.136L0.154,-0.036C0.154,-0.024 0.15,-0.015 0.143,-0.007C0.135,0.001 0.126,0.005 0.114,0.005C0.103,0.005 0.093,0.001 0.086,-0.007C0.078,-0.014 0.074,-0.024 0.074,-0.036L0.074,-0.699C0.074,-0.71 0.078,-0.72 0.085,-0.728C0.093,-0.736 0.102,-0.74 0.114,-0.74C0.126,-0.74 0.135,-0.736 0.143,-0.728C0.15,-0.72 0.154,-0.71 0.154,-0.699L0.154,-0.391L0.139,-0.399C0.144,-0.416 0.152,-0.432 0.164,-0.447C0.175,-0.463 0.19,-0.477 0.207,-0.489C0.224,-0.502 0.242,-0.512 0.263,-0.519C0.284,-0.526 0.306,-0.53 0.329,-0.53ZM0.32,-0.456C0.286,-0.456 0.257,-0.448 0.231,-0.431C0.206,-0.414 0.186,-0.391 0.171,-0.362C0.157,-0.333 0.15,-0.299 0.15,-0.262C0.15,-0.224 0.157,-0.191 0.171,-0.161C0.186,-0.131 0.206,-0.107 0.231,-0.09C0.257,-0.073 0.286,-0.064 0.32,-0.064C0.353,-0.064 0.383,-0.073 0.408,-0.09C0.433,-0.107 0.453,-0.131 0.468,-0.161C0.483,-0.191 0.49,-0.225 0.49,-0.262C0.49,-0.299 0.483,-0.333 0.468,-0.362C0.453,-0.391 0.433,-0.414 0.408,-0.431C0.383,-0.448 0.353,-0.456 0.32,-0.456Z" style="fill:white;fill-rule:nonzero;"/>
                    </g>
                    <g transform="matrix(50.7247,-53.8795,53.8795,50.7247,414.71,474.943)">
                        <path d="M0.162,-0.041C0.162,-0.029 0.158,-0.02 0.15,-0.012C0.142,-0.004 0.132,-0 0.121,-0C0.11,-0 0.1,-0.004 0.093,-0.012C0.085,-0.02 0.082,-0.029 0.082,-0.041L0.082,-0.7C0.082,-0.711 0.085,-0.72 0.093,-0.728C0.101,-0.736 0.111,-0.74 0.122,-0.74C0.134,-0.74 0.143,-0.736 0.151,-0.728C0.158,-0.72 0.162,-0.711 0.162,-0.7L0.162,-0.041Z" style="fill:white;fill-rule:nonzero;"/>
                    </g>
                    <g transform="matrix(54.4614,-50.0995,50.0995,54.4614,425.068,463.18)">
                        <path d="M0.313,0.01C0.259,0.01 0.213,-0.001 0.173,-0.024C0.133,-0.046 0.101,-0.077 0.079,-0.117C0.057,-0.157 0.046,-0.203 0.046,-0.255C0.046,-0.313 0.057,-0.362 0.081,-0.403C0.103,-0.444 0.133,-0.475 0.17,-0.497C0.207,-0.519 0.246,-0.53 0.288,-0.53C0.319,-0.53 0.348,-0.524 0.377,-0.513C0.405,-0.501 0.431,-0.485 0.453,-0.463C0.475,-0.441 0.493,-0.415 0.506,-0.385C0.519,-0.355 0.526,-0.321 0.527,-0.284C0.527,-0.273 0.523,-0.264 0.515,-0.257C0.507,-0.25 0.497,-0.246 0.487,-0.246L0.092,-0.246L0.074,-0.315L0.459,-0.315L0.443,-0.301L0.443,-0.323C0.44,-0.35 0.431,-0.374 0.416,-0.394C0.4,-0.413 0.381,-0.428 0.358,-0.439C0.336,-0.45 0.312,-0.455 0.288,-0.455C0.268,-0.455 0.248,-0.451 0.228,-0.444C0.208,-0.437 0.191,-0.426 0.175,-0.41C0.159,-0.395 0.147,-0.375 0.137,-0.35C0.128,-0.325 0.123,-0.296 0.123,-0.261C0.123,-0.222 0.131,-0.188 0.147,-0.159C0.162,-0.129 0.184,-0.106 0.212,-0.089C0.24,-0.072 0.273,-0.064 0.31,-0.064C0.333,-0.064 0.354,-0.067 0.371,-0.073C0.388,-0.079 0.403,-0.086 0.416,-0.095C0.428,-0.104 0.439,-0.114 0.448,-0.123C0.456,-0.129 0.465,-0.132 0.473,-0.132C0.483,-0.132 0.491,-0.129 0.497,-0.122C0.504,-0.115 0.507,-0.107 0.507,-0.098C0.507,-0.087 0.502,-0.077 0.491,-0.068C0.472,-0.047 0.447,-0.029 0.415,-0.013C0.383,0.002 0.349,0.01 0.313,0.01Z" style="fill:white;fill-rule:nonzero;"/>
                    </g>
                    <g transform="matrix(60.8728,-42.0773,42.0773,60.8728,454.748,434.564)">
                        <path d="M0.321,-0.525C0.366,-0.525 0.403,-0.514 0.431,-0.491C0.459,-0.468 0.478,-0.435 0.488,-0.393L0.473,-0.393L0.48,-0.411C0.488,-0.429 0.502,-0.447 0.521,-0.465C0.54,-0.482 0.562,-0.497 0.588,-0.508C0.613,-0.519 0.639,-0.525 0.667,-0.525C0.711,-0.525 0.745,-0.516 0.771,-0.497C0.796,-0.478 0.814,-0.452 0.825,-0.421C0.836,-0.389 0.842,-0.353 0.842,-0.314L0.842,-0.041C0.842,-0.029 0.838,-0.02 0.83,-0.012C0.823,-0.004 0.813,-0 0.802,-0C0.79,-0 0.78,-0.004 0.773,-0.012C0.765,-0.02 0.762,-0.029 0.762,-0.041L0.762,-0.312C0.762,-0.338 0.758,-0.361 0.75,-0.382C0.743,-0.403 0.73,-0.42 0.713,-0.432C0.696,-0.445 0.673,-0.451 0.644,-0.451C0.616,-0.451 0.592,-0.445 0.569,-0.432C0.546,-0.42 0.528,-0.403 0.515,-0.382C0.502,-0.361 0.495,-0.338 0.495,-0.312L0.495,-0.041C0.495,-0.029 0.491,-0.02 0.484,-0.012C0.476,-0.004 0.467,-0 0.455,-0C0.443,-0 0.434,-0.004 0.426,-0.012C0.419,-0.02 0.415,-0.029 0.415,-0.041L0.415,-0.315C0.415,-0.34 0.411,-0.363 0.404,-0.383C0.397,-0.404 0.385,-0.42 0.369,-0.433C0.352,-0.445 0.329,-0.451 0.3,-0.451C0.273,-0.451 0.249,-0.445 0.227,-0.433C0.205,-0.42 0.187,-0.404 0.174,-0.383C0.161,-0.363 0.154,-0.34 0.154,-0.315L0.154,-0.041C0.154,-0.029 0.15,-0.02 0.143,-0.012C0.135,-0.004 0.125,-0 0.114,-0C0.102,-0 0.093,-0.004 0.085,-0.012C0.078,-0.02 0.074,-0.029 0.074,-0.041L0.074,-0.477C0.074,-0.488 0.078,-0.497 0.086,-0.505C0.093,-0.513 0.103,-0.517 0.114,-0.517C0.126,-0.517 0.135,-0.513 0.143,-0.505C0.15,-0.497 0.154,-0.488 0.154,-0.477L0.154,-0.401L0.132,-0.377C0.135,-0.394 0.141,-0.411 0.153,-0.429C0.164,-0.446 0.178,-0.462 0.195,-0.477C0.212,-0.491 0.231,-0.503 0.253,-0.512C0.274,-0.521 0.297,-0.525 0.321,-0.525Z" style="fill:white;fill-rule:nonzero;"/>
                    </g>
                    <g transform="matrix(67.7887,-29.6765,29.6765,67.7887,526.314,388.438)">
                        <path d="M0.565,-0.26C0.565,-0.208 0.553,-0.161 0.53,-0.121C0.507,-0.08 0.476,-0.048 0.438,-0.025C0.399,-0.002 0.355,0.01 0.306,0.01C0.257,0.01 0.213,-0.002 0.174,-0.025C0.135,-0.048 0.103,-0.08 0.081,-0.121C0.057,-0.161 0.046,-0.208 0.046,-0.26C0.046,-0.312 0.057,-0.358 0.081,-0.399C0.103,-0.44 0.135,-0.472 0.174,-0.495C0.213,-0.518 0.257,-0.53 0.306,-0.53C0.355,-0.53 0.399,-0.518 0.438,-0.495C0.476,-0.472 0.507,-0.44 0.53,-0.399C0.553,-0.358 0.565,-0.312 0.565,-0.26ZM0.485,-0.26C0.485,-0.298 0.477,-0.332 0.461,-0.362C0.445,-0.391 0.424,-0.414 0.397,-0.431C0.37,-0.448 0.339,-0.456 0.306,-0.456C0.272,-0.456 0.241,-0.448 0.214,-0.431C0.187,-0.414 0.166,-0.391 0.15,-0.362C0.134,-0.332 0.126,-0.298 0.126,-0.26C0.126,-0.222 0.134,-0.188 0.15,-0.159C0.166,-0.129 0.187,-0.106 0.214,-0.089C0.241,-0.072 0.272,-0.064 0.306,-0.064C0.339,-0.064 0.37,-0.072 0.397,-0.089C0.424,-0.106 0.445,-0.129 0.461,-0.159C0.477,-0.188 0.485,-0.222 0.485,-0.26Z" style="fill:white;fill-rule:nonzero;"/>
                    </g>
                    <g transform="matrix(70.2705,-23.196,23.196,70.2705,566.423,371.2)">
                        <path d="M0.29,-0.738C0.301,-0.738 0.313,-0.736 0.325,-0.734C0.338,-0.731 0.348,-0.726 0.357,-0.72C0.366,-0.713 0.371,-0.704 0.371,-0.693C0.371,-0.682 0.367,-0.674 0.361,-0.667C0.354,-0.66 0.346,-0.656 0.337,-0.656C0.331,-0.656 0.322,-0.658 0.312,-0.661C0.301,-0.665 0.29,-0.667 0.279,-0.667C0.264,-0.667 0.251,-0.663 0.242,-0.657C0.232,-0.65 0.225,-0.641 0.22,-0.63C0.216,-0.619 0.214,-0.607 0.214,-0.594L0.214,-0.041C0.214,-0.029 0.21,-0.02 0.202,-0.012C0.194,-0.004 0.185,-0 0.174,-0C0.162,-0 0.152,-0.004 0.145,-0.012C0.137,-0.02 0.134,-0.029 0.134,-0.041L0.134,-0.593C0.134,-0.637 0.147,-0.673 0.175,-0.699C0.203,-0.725 0.241,-0.738 0.29,-0.738ZM0.318,-0.509C0.329,-0.509 0.338,-0.505 0.345,-0.499C0.352,-0.492 0.356,-0.483 0.356,-0.472C0.356,-0.461 0.352,-0.452 0.345,-0.446C0.338,-0.439 0.329,-0.435 0.318,-0.435L0.067,-0.435C0.056,-0.435 0.047,-0.439 0.04,-0.446C0.033,-0.453 0.029,-0.462 0.029,-0.472C0.029,-0.483 0.033,-0.492 0.04,-0.499C0.047,-0.506 0.056,-0.509 0.067,-0.509L0.318,-0.509Z" style="fill:white;fill-rule:nonzero;"/>
                    </g>
                    <g transform="matrix(72.8698,-12.8837,12.8837,72.8698,610.228,357.301)">
                        <path d="M0.362,-0.7C0.398,-0.7 0.431,-0.691 0.461,-0.673C0.49,-0.655 0.513,-0.63 0.53,-0.599C0.547,-0.568 0.556,-0.532 0.556,-0.492C0.556,-0.453 0.547,-0.417 0.53,-0.385C0.513,-0.353 0.49,-0.328 0.461,-0.309C0.431,-0.29 0.398,-0.281 0.362,-0.281L0.159,-0.281L0.166,-0.293L0.166,-0.041C0.166,-0.029 0.162,-0.02 0.155,-0.012C0.147,-0.004 0.138,-0 0.127,-0C0.115,-0 0.105,-0.004 0.098,-0.012C0.091,-0.02 0.088,-0.029 0.088,-0.041L0.088,-0.66C0.088,-0.671 0.091,-0.68 0.099,-0.688C0.107,-0.696 0.117,-0.7 0.128,-0.7L0.362,-0.7ZM0.362,-0.358C0.384,-0.358 0.403,-0.364 0.42,-0.376C0.437,-0.388 0.45,-0.404 0.46,-0.425C0.47,-0.445 0.475,-0.468 0.475,-0.492C0.475,-0.517 0.47,-0.539 0.46,-0.559C0.45,-0.578 0.437,-0.594 0.42,-0.605C0.403,-0.617 0.384,-0.623 0.362,-0.623L0.159,-0.623L0.166,-0.634L0.166,-0.348L0.159,-0.358L0.362,-0.358Z" style="fill:white;fill-rule:nonzero;"/>
                    </g>
                    <g transform="matrix(73.7539,-6.03023,6.03023,73.7539,652.375,349.947)">
                        <path d="M0.114,-0C0.102,-0 0.093,-0.004 0.085,-0.012C0.078,-0.02 0.074,-0.029 0.074,-0.041L0.074,-0.477C0.074,-0.488 0.078,-0.497 0.086,-0.505C0.093,-0.513 0.103,-0.517 0.114,-0.517C0.126,-0.517 0.135,-0.513 0.143,-0.505C0.15,-0.497 0.154,-0.488 0.154,-0.477L0.154,-0.345L0.142,-0.366C0.146,-0.387 0.153,-0.407 0.163,-0.426C0.173,-0.446 0.187,-0.463 0.203,-0.479C0.219,-0.495 0.237,-0.507 0.258,-0.516C0.279,-0.525 0.301,-0.53 0.326,-0.53C0.341,-0.53 0.354,-0.527 0.366,-0.52C0.378,-0.513 0.385,-0.503 0.385,-0.49C0.385,-0.476 0.381,-0.466 0.374,-0.459C0.366,-0.452 0.358,-0.448 0.349,-0.449C0.34,-0.448 0.332,-0.45 0.324,-0.454C0.316,-0.458 0.306,-0.46 0.294,-0.46C0.277,-0.46 0.261,-0.455 0.244,-0.446C0.228,-0.437 0.213,-0.424 0.199,-0.408C0.185,-0.391 0.174,-0.372 0.166,-0.351C0.158,-0.33 0.154,-0.308 0.154,-0.284L0.154,-0.041C0.154,-0.029 0.15,-0.02 0.143,-0.012C0.135,-0.004 0.125,-0 0.114,-0Z" style="fill:white;fill-rule:nonzero;"/>
                    </g>
                    <g transform="matrix(73.9637,-2.31654,2.31654,73.9637,680.549,347.722)">
                        <path d="M0.151,-0.041C0.151,-0.03 0.147,-0.02 0.14,-0.012C0.132,-0.004 0.122,-0 0.111,-0C0.099,-0 0.089,-0.004 0.082,-0.012C0.075,-0.02 0.071,-0.03 0.071,-0.041L0.071,-0.485C0.071,-0.496 0.075,-0.506 0.083,-0.514C0.09,-0.521 0.1,-0.525 0.111,-0.525C0.122,-0.525 0.132,-0.521 0.14,-0.514C0.147,-0.506 0.151,-0.496 0.151,-0.485L0.151,-0.041ZM0.111,-0.591C0.094,-0.591 0.082,-0.594 0.074,-0.601C0.066,-0.608 0.062,-0.618 0.062,-0.632L0.062,-0.646C0.062,-0.66 0.066,-0.67 0.075,-0.677C0.084,-0.684 0.096,-0.687 0.112,-0.687C0.128,-0.687 0.14,-0.684 0.148,-0.677C0.156,-0.67 0.16,-0.66 0.16,-0.646L0.16,-0.632C0.16,-0.618 0.156,-0.608 0.148,-0.601C0.139,-0.594 0.127,-0.591 0.111,-0.591Z" style="fill:white;fill-rule:nonzero;"/>
                    </g>
                    <g transform="matrix(73.8057,5.35912,-5.35912,73.8057,695.425,345.841)">
                        <path d="M0.321,-0.525C0.366,-0.525 0.403,-0.514 0.431,-0.491C0.459,-0.468 0.478,-0.435 0.488,-0.393L0.473,-0.393L0.48,-0.411C0.488,-0.429 0.502,-0.447 0.521,-0.465C0.54,-0.482 0.562,-0.497 0.588,-0.508C0.613,-0.519 0.639,-0.525 0.667,-0.525C0.711,-0.525 0.745,-0.516 0.771,-0.497C0.796,-0.478 0.814,-0.452 0.825,-0.421C0.836,-0.389 0.842,-0.353 0.842,-0.314L0.842,-0.041C0.842,-0.029 0.838,-0.02 0.83,-0.012C0.823,-0.004 0.813,-0 0.802,-0C0.79,-0 0.78,-0.004 0.773,-0.012C0.765,-0.02 0.762,-0.029 0.762,-0.041L0.762,-0.312C0.762,-0.338 0.758,-0.361 0.75,-0.382C0.743,-0.403 0.73,-0.42 0.713,-0.432C0.696,-0.445 0.673,-0.451 0.644,-0.451C0.616,-0.451 0.592,-0.445 0.569,-0.432C0.546,-0.42 0.528,-0.403 0.515,-0.382C0.502,-0.361 0.495,-0.338 0.495,-0.312L0.495,-0.041C0.495,-0.029 0.491,-0.02 0.484,-0.012C0.476,-0.004 0.467,-0 0.455,-0C0.443,-0 0.434,-0.004 0.426,-0.012C0.419,-0.02 0.415,-0.029 0.415,-0.041L0.415,-0.315C0.415,-0.34 0.411,-0.363 0.404,-0.383C0.397,-0.404 0.385,-0.42 0.369,-0.433C0.352,-0.445 0.329,-0.451 0.3,-0.451C0.273,-0.451 0.249,-0.445 0.227,-0.433C0.205,-0.42 0.187,-0.404 0.174,-0.383C0.161,-0.363 0.154,-0.34 0.154,-0.315L0.154,-0.041C0.154,-0.029 0.15,-0.02 0.143,-0.012C0.135,-0.004 0.125,-0 0.114,-0C0.102,-0 0.093,-0.004 0.085,-0.012C0.078,-0.02 0.074,-0.029 0.074,-0.041L0.074,-0.477C0.074,-0.488 0.078,-0.497 0.086,-0.505C0.093,-0.513 0.103,-0.517 0.114,-0.517C0.126,-0.517 0.135,-0.513 0.143,-0.505C0.15,-0.497 0.154,-0.488 0.154,-0.477L0.154,-0.401L0.132,-0.377C0.135,-0.394 0.141,-0.411 0.153,-0.429C0.164,-0.446 0.178,-0.462 0.195,-0.477C0.212,-0.491 0.231,-0.503 0.253,-0.512C0.274,-0.521 0.297,-0.525 0.321,-0.525Z" style="fill:white;fill-rule:nonzero;"/>
                    </g>
                    <g transform="matrix(72.5119,14.7655,-14.7655,72.5119,761.431,351.621)">
                        <path d="M0.114,-0C0.102,-0 0.093,-0.004 0.085,-0.012C0.078,-0.02 0.074,-0.029 0.074,-0.041L0.074,-0.477C0.074,-0.488 0.078,-0.497 0.086,-0.505C0.093,-0.513 0.103,-0.517 0.114,-0.517C0.126,-0.517 0.135,-0.513 0.143,-0.505C0.15,-0.497 0.154,-0.488 0.154,-0.477L0.154,-0.345L0.142,-0.366C0.146,-0.387 0.153,-0.407 0.163,-0.426C0.173,-0.446 0.187,-0.463 0.203,-0.479C0.219,-0.495 0.237,-0.507 0.258,-0.516C0.279,-0.525 0.301,-0.53 0.326,-0.53C0.341,-0.53 0.354,-0.527 0.366,-0.52C0.378,-0.513 0.385,-0.503 0.385,-0.49C0.385,-0.476 0.381,-0.466 0.374,-0.459C0.366,-0.452 0.358,-0.448 0.349,-0.449C0.34,-0.448 0.332,-0.45 0.324,-0.454C0.316,-0.458 0.306,-0.46 0.294,-0.46C0.277,-0.46 0.261,-0.455 0.244,-0.446C0.228,-0.437 0.213,-0.424 0.199,-0.408C0.185,-0.391 0.174,-0.372 0.166,-0.351C0.158,-0.33 0.154,-0.308 0.154,-0.284L0.154,-0.041C0.154,-0.029 0.15,-0.02 0.143,-0.012C0.135,-0.004 0.125,-0 0.114,-0Z" style="fill:white;fill-rule:nonzero;"/>
                    </g>
                    <g transform="matrix(71.0042,20.8422,-20.8422,71.0042,787.731,356.421)">
                        <path d="M0.565,-0.26C0.565,-0.208 0.553,-0.161 0.53,-0.121C0.507,-0.08 0.476,-0.048 0.438,-0.025C0.399,-0.002 0.355,0.01 0.306,0.01C0.257,0.01 0.213,-0.002 0.174,-0.025C0.135,-0.048 0.103,-0.08 0.081,-0.121C0.057,-0.161 0.046,-0.208 0.046,-0.26C0.046,-0.312 0.057,-0.358 0.081,-0.399C0.103,-0.44 0.135,-0.472 0.174,-0.495C0.213,-0.518 0.257,-0.53 0.306,-0.53C0.355,-0.53 0.399,-0.518 0.438,-0.495C0.476,-0.472 0.507,-0.44 0.53,-0.399C0.553,-0.358 0.565,-0.312 0.565,-0.26ZM0.485,-0.26C0.485,-0.298 0.477,-0.332 0.461,-0.362C0.445,-0.391 0.424,-0.414 0.397,-0.431C0.37,-0.448 0.339,-0.456 0.306,-0.456C0.272,-0.456 0.241,-0.448 0.214,-0.431C0.187,-0.414 0.166,-0.391 0.15,-0.362C0.134,-0.332 0.126,-0.298 0.126,-0.26C0.126,-0.222 0.134,-0.188 0.15,-0.159C0.166,-0.129 0.187,-0.106 0.214,-0.089C0.241,-0.072 0.272,-0.064 0.306,-0.064C0.339,-0.064 0.37,-0.072 0.397,-0.089C0.424,-0.106 0.445,-0.129 0.461,-0.159C0.477,-0.188 0.485,-0.222 0.485,-0.26Z" style="fill:white;fill-rule:nonzero;"/>
                    </g>
                    <g transform="matrix(68.549,27.8753,-27.8753,68.549,829.622,368.917)">
                        <path d="M0.045,-0.082C0.039,-0.09 0.036,-0.099 0.037,-0.109C0.037,-0.119 0.043,-0.128 0.054,-0.135C0.061,-0.14 0.068,-0.142 0.077,-0.141C0.086,-0.14 0.094,-0.136 0.102,-0.128C0.12,-0.106 0.142,-0.089 0.166,-0.076C0.19,-0.063 0.219,-0.056 0.254,-0.056C0.27,-0.056 0.286,-0.059 0.302,-0.064C0.318,-0.069 0.332,-0.077 0.343,-0.088C0.354,-0.1 0.359,-0.115 0.359,-0.135C0.359,-0.153 0.353,-0.168 0.342,-0.179C0.331,-0.19 0.316,-0.2 0.298,-0.207C0.28,-0.214 0.26,-0.22 0.239,-0.225C0.217,-0.231 0.195,-0.238 0.174,-0.245C0.153,-0.253 0.134,-0.262 0.117,-0.274C0.099,-0.286 0.086,-0.3 0.076,-0.318C0.065,-0.336 0.06,-0.357 0.06,-0.383C0.06,-0.413 0.068,-0.439 0.085,-0.461C0.101,-0.483 0.123,-0.5 0.15,-0.512C0.178,-0.524 0.208,-0.53 0.241,-0.53C0.259,-0.53 0.279,-0.528 0.299,-0.523C0.319,-0.519 0.339,-0.511 0.359,-0.501C0.378,-0.491 0.395,-0.477 0.41,-0.459C0.416,-0.452 0.419,-0.444 0.42,-0.434C0.42,-0.424 0.416,-0.415 0.407,-0.407C0.4,-0.402 0.392,-0.399 0.383,-0.4C0.374,-0.4 0.366,-0.404 0.36,-0.41C0.346,-0.427 0.328,-0.44 0.307,-0.449C0.286,-0.458 0.263,-0.462 0.238,-0.462C0.222,-0.462 0.206,-0.46 0.191,-0.455C0.175,-0.45 0.162,-0.442 0.152,-0.431C0.142,-0.42 0.137,-0.405 0.137,-0.386C0.137,-0.368 0.143,-0.353 0.155,-0.342C0.166,-0.331 0.182,-0.321 0.201,-0.314C0.22,-0.307 0.242,-0.3 0.265,-0.294C0.286,-0.289 0.306,-0.282 0.326,-0.275C0.346,-0.268 0.364,-0.259 0.38,-0.248C0.396,-0.236 0.408,-0.222 0.418,-0.204C0.427,-0.187 0.432,-0.165 0.432,-0.138C0.432,-0.107 0.423,-0.08 0.406,-0.058C0.388,-0.036 0.365,-0.019 0.337,-0.008C0.309,0.004 0.279,0.01 0.246,0.01C0.209,0.01 0.173,0.003 0.137,-0.011C0.101,-0.025 0.071,-0.048 0.045,-0.082Z" style="fill:white;fill-rule:nonzero;"/>
                    </g>
                    <g transform="matrix(65.506,34.4233,-34.4233,65.506,860.806,381.337)">
                        <path d="M0.313,0.01C0.259,0.01 0.213,-0.001 0.173,-0.024C0.133,-0.046 0.101,-0.077 0.079,-0.117C0.057,-0.157 0.046,-0.203 0.046,-0.255C0.046,-0.313 0.057,-0.362 0.081,-0.403C0.103,-0.444 0.133,-0.475 0.17,-0.497C0.207,-0.519 0.246,-0.53 0.288,-0.53C0.319,-0.53 0.348,-0.524 0.377,-0.513C0.405,-0.501 0.431,-0.485 0.453,-0.463C0.475,-0.441 0.493,-0.415 0.506,-0.385C0.519,-0.355 0.526,-0.321 0.527,-0.284C0.527,-0.273 0.523,-0.264 0.515,-0.257C0.507,-0.25 0.497,-0.246 0.487,-0.246L0.092,-0.246L0.074,-0.315L0.459,-0.315L0.443,-0.301L0.443,-0.323C0.44,-0.35 0.431,-0.374 0.416,-0.394C0.4,-0.413 0.381,-0.428 0.358,-0.439C0.336,-0.45 0.312,-0.455 0.288,-0.455C0.268,-0.455 0.248,-0.451 0.228,-0.444C0.208,-0.437 0.191,-0.426 0.175,-0.41C0.159,-0.395 0.147,-0.375 0.137,-0.35C0.128,-0.325 0.123,-0.296 0.123,-0.261C0.123,-0.222 0.131,-0.188 0.147,-0.159C0.162,-0.129 0.184,-0.106 0.212,-0.089C0.24,-0.072 0.273,-0.064 0.31,-0.064C0.333,-0.064 0.354,-0.067 0.371,-0.073C0.388,-0.079 0.403,-0.086 0.416,-0.095C0.428,-0.104 0.439,-0.114 0.448,-0.123C0.456,-0.129 0.465,-0.132 0.473,-0.132C0.483,-0.132 0.491,-0.129 0.497,-0.122C0.504,-0.115 0.507,-0.107 0.507,-0.098C0.507,-0.087 0.502,-0.077 0.491,-0.068C0.472,-0.047 0.447,-0.029 0.415,-0.013C0.383,0.002 0.349,0.01 0.313,0.01Z" style="fill:white;fill-rule:nonzero;"/>
                    </g>
                    <g transform="matrix(59.4372,44.082,-44.082,59.4372,913.046,410.333)">
                        <path d="M0.292,0.01C0.242,0.01 0.199,0.003 0.162,-0.012C0.124,-0.027 0.088,-0.05 0.054,-0.082C0.049,-0.086 0.045,-0.091 0.042,-0.097C0.039,-0.103 0.038,-0.109 0.038,-0.116C0.038,-0.126 0.041,-0.136 0.049,-0.144C0.057,-0.152 0.067,-0.157 0.078,-0.157C0.087,-0.157 0.095,-0.153 0.103,-0.146C0.129,-0.12 0.157,-0.101 0.188,-0.088C0.218,-0.074 0.252,-0.068 0.29,-0.068C0.319,-0.068 0.345,-0.072 0.369,-0.082C0.393,-0.091 0.412,-0.104 0.426,-0.121C0.44,-0.137 0.447,-0.157 0.447,-0.179C0.446,-0.206 0.439,-0.228 0.424,-0.245C0.409,-0.262 0.388,-0.277 0.361,-0.288C0.335,-0.3 0.304,-0.31 0.27,-0.318C0.239,-0.325 0.211,-0.334 0.186,-0.345C0.16,-0.355 0.138,-0.368 0.119,-0.384C0.1,-0.4 0.085,-0.419 0.075,-0.441C0.065,-0.463 0.06,-0.49 0.06,-0.52C0.06,-0.558 0.07,-0.591 0.09,-0.62C0.11,-0.648 0.137,-0.67 0.173,-0.686C0.208,-0.702 0.249,-0.71 0.295,-0.71C0.335,-0.71 0.374,-0.703 0.41,-0.69C0.447,-0.677 0.476,-0.658 0.498,-0.635C0.511,-0.622 0.518,-0.61 0.518,-0.598C0.518,-0.588 0.513,-0.579 0.505,-0.571C0.497,-0.562 0.488,-0.558 0.477,-0.558C0.469,-0.558 0.463,-0.561 0.457,-0.566C0.446,-0.578 0.431,-0.59 0.414,-0.6C0.396,-0.61 0.377,-0.618 0.357,-0.624C0.336,-0.63 0.315,-0.633 0.295,-0.633C0.264,-0.633 0.237,-0.628 0.214,-0.619C0.191,-0.61 0.172,-0.597 0.16,-0.581C0.147,-0.565 0.14,-0.546 0.14,-0.523C0.14,-0.498 0.147,-0.477 0.162,-0.461C0.177,-0.444 0.196,-0.431 0.221,-0.421C0.246,-0.41 0.273,-0.401 0.303,-0.393C0.335,-0.385 0.365,-0.375 0.393,-0.365C0.421,-0.355 0.445,-0.342 0.465,-0.327C0.485,-0.311 0.501,-0.292 0.512,-0.268C0.523,-0.245 0.528,-0.216 0.528,-0.181C0.528,-0.144 0.518,-0.111 0.497,-0.083C0.476,-0.054 0.448,-0.031 0.412,-0.015C0.377,0.001 0.337,0.01 0.292,0.01Z" style="fill:white;fill-rule:nonzero;"/>
                    </g>
                    <g transform="matrix(54.3493,50.221,-50.221,54.3493,946.095,434.748)">
                        <path d="M0.331,-0.53C0.376,-0.53 0.412,-0.521 0.438,-0.502C0.464,-0.483 0.483,-0.458 0.494,-0.427C0.505,-0.395 0.51,-0.36 0.51,-0.322L0.51,-0.041C0.51,-0.029 0.506,-0.02 0.499,-0.012C0.491,-0.004 0.481,-0 0.47,-0C0.458,-0 0.449,-0.004 0.441,-0.012C0.434,-0.02 0.43,-0.029 0.43,-0.041L0.43,-0.32C0.43,-0.345 0.426,-0.368 0.419,-0.388C0.411,-0.409 0.398,-0.425 0.38,-0.438C0.362,-0.45 0.338,-0.456 0.308,-0.456C0.28,-0.456 0.254,-0.45 0.231,-0.438C0.208,-0.425 0.189,-0.409 0.175,-0.388C0.161,-0.368 0.154,-0.345 0.154,-0.32L0.154,-0.041C0.154,-0.029 0.15,-0.02 0.143,-0.012C0.135,-0.004 0.125,-0 0.114,-0C0.102,-0 0.093,-0.004 0.085,-0.012C0.078,-0.02 0.074,-0.029 0.074,-0.041L0.074,-0.477C0.074,-0.488 0.078,-0.497 0.086,-0.505C0.093,-0.513 0.103,-0.517 0.114,-0.517C0.126,-0.517 0.135,-0.513 0.143,-0.505C0.15,-0.497 0.154,-0.488 0.154,-0.477L0.154,-0.406L0.134,-0.384C0.137,-0.401 0.145,-0.419 0.157,-0.436C0.169,-0.454 0.184,-0.47 0.202,-0.484C0.22,-0.498 0.24,-0.509 0.262,-0.518C0.284,-0.526 0.307,-0.53 0.331,-0.53Z" style="fill:white;fill-rule:nonzero;"/>
                    </g>
                    <g transform="matrix(48.4963,55.8937,-55.8937,48.4963,976.869,463.003)">
                        <path d="M0.565,-0.26C0.565,-0.208 0.553,-0.161 0.53,-0.121C0.507,-0.08 0.476,-0.048 0.438,-0.025C0.399,-0.002 0.355,0.01 0.306,0.01C0.257,0.01 0.213,-0.002 0.174,-0.025C0.135,-0.048 0.103,-0.08 0.081,-0.121C0.057,-0.161 0.046,-0.208 0.046,-0.26C0.046,-0.312 0.057,-0.358 0.081,-0.399C0.103,-0.44 0.135,-0.472 0.174,-0.495C0.213,-0.518 0.257,-0.53 0.306,-0.53C0.355,-0.53 0.399,-0.518 0.438,-0.495C0.476,-0.472 0.507,-0.44 0.53,-0.399C0.553,-0.358 0.565,-0.312 0.565,-0.26ZM0.485,-0.26C0.485,-0.298 0.477,-0.332 0.461,-0.362C0.445,-0.391 0.424,-0.414 0.397,-0.431C0.37,-0.448 0.339,-0.456 0.306,-0.456C0.272,-0.456 0.241,-0.448 0.214,-0.431C0.187,-0.414 0.166,-0.391 0.15,-0.362C0.134,-0.332 0.126,-0.298 0.126,-0.26C0.126,-0.222 0.134,-0.188 0.15,-0.159C0.166,-0.129 0.187,-0.106 0.214,-0.089C0.241,-0.072 0.272,-0.064 0.306,-0.064C0.339,-0.064 0.37,-0.072 0.397,-0.089C0.424,-0.106 0.445,-0.129 0.461,-0.159C0.477,-0.188 0.485,-0.222 0.485,-0.26Z" style="fill:white;fill-rule:nonzero;"/>
                    </g>
                    <g transform="matrix(41.0207,61.5898,-61.5898,41.0207,1005.91,495.811)">
                        <path d="M0.684,-0.526C0.694,-0.526 0.703,-0.522 0.711,-0.515C0.719,-0.508 0.723,-0.498 0.723,-0.486C0.723,-0.483 0.723,-0.48 0.722,-0.477C0.722,-0.474 0.721,-0.471 0.72,-0.469L0.566,-0.026C0.563,-0.017 0.557,-0.01 0.55,-0.006C0.542,-0.001 0.534,0.001 0.525,-0C0.51,-0.001 0.498,-0.009 0.49,-0.026L0.364,-0.342L0.384,-0.339L0.27,-0.026C0.262,-0.009 0.251,-0.001 0.235,-0C0.226,0.001 0.218,-0.001 0.21,-0.006C0.202,-0.01 0.197,-0.017 0.194,-0.026L0.037,-0.469C0.035,-0.475 0.034,-0.48 0.034,-0.486C0.034,-0.497 0.038,-0.506 0.045,-0.514C0.052,-0.522 0.062,-0.526 0.075,-0.526C0.083,-0.526 0.09,-0.524 0.097,-0.52C0.104,-0.516 0.108,-0.509 0.111,-0.501L0.246,-0.107L0.225,-0.108L0.342,-0.408C0.349,-0.424 0.361,-0.432 0.379,-0.433C0.388,-0.432 0.395,-0.43 0.401,-0.426C0.407,-0.422 0.411,-0.416 0.414,-0.408L0.536,-0.108L0.511,-0.106L0.646,-0.501C0.652,-0.518 0.664,-0.526 0.684,-0.526Z" style="fill:white;fill-rule:nonzero;"/>
                    </g>
                    <g transform="matrix(32.6448,66.4102,-66.4102,32.6448,1036.02,541.344)">
                        <path d="M0.329,-0.53C0.374,-0.53 0.415,-0.519 0.451,-0.496C0.487,-0.472 0.515,-0.441 0.536,-0.401C0.557,-0.361 0.568,-0.314 0.568,-0.262C0.568,-0.209 0.557,-0.163 0.536,-0.122C0.515,-0.081 0.487,-0.049 0.451,-0.025C0.415,-0.002 0.375,0.01 0.331,0.01C0.306,0.01 0.283,0.006 0.261,-0.002C0.239,-0.009 0.22,-0.019 0.202,-0.032C0.185,-0.045 0.17,-0.059 0.158,-0.075C0.146,-0.091 0.137,-0.106 0.132,-0.122L0.154,-0.136L0.154,-0.036C0.154,-0.024 0.15,-0.015 0.143,-0.007C0.135,0.001 0.126,0.005 0.114,0.005C0.103,0.005 0.093,0.001 0.086,-0.007C0.078,-0.014 0.074,-0.024 0.074,-0.036L0.074,-0.699C0.074,-0.71 0.078,-0.72 0.085,-0.728C0.093,-0.736 0.102,-0.74 0.114,-0.74C0.126,-0.74 0.135,-0.736 0.143,-0.728C0.15,-0.72 0.154,-0.71 0.154,-0.699L0.154,-0.391L0.139,-0.399C0.144,-0.416 0.152,-0.432 0.164,-0.447C0.175,-0.463 0.19,-0.477 0.207,-0.489C0.224,-0.502 0.242,-0.512 0.263,-0.519C0.284,-0.526 0.306,-0.53 0.329,-0.53ZM0.32,-0.456C0.286,-0.456 0.257,-0.448 0.231,-0.431C0.206,-0.414 0.186,-0.391 0.171,-0.362C0.157,-0.333 0.15,-0.299 0.15,-0.262C0.15,-0.224 0.157,-0.191 0.171,-0.161C0.186,-0.131 0.206,-0.107 0.231,-0.09C0.257,-0.073 0.286,-0.064 0.32,-0.064C0.353,-0.064 0.383,-0.073 0.408,-0.09C0.433,-0.107 0.453,-0.131 0.468,-0.161C0.483,-0.191 0.49,-0.225 0.49,-0.262C0.49,-0.299 0.483,-0.333 0.468,-0.362C0.453,-0.391 0.433,-0.414 0.408,-0.431C0.383,-0.448 0.353,-0.456 0.32,-0.456Z" style="fill:white;fill-rule:nonzero;"/>
                    </g>
                    <g transform="matrix(25.3006,69.5405,-69.5405,25.3006,1055.42,580.681)">
                        <path d="M0.313,0.01C0.259,0.01 0.213,-0.001 0.173,-0.024C0.133,-0.046 0.101,-0.077 0.079,-0.117C0.057,-0.157 0.046,-0.203 0.046,-0.255C0.046,-0.313 0.057,-0.362 0.081,-0.403C0.103,-0.444 0.133,-0.475 0.17,-0.497C0.207,-0.519 0.246,-0.53 0.288,-0.53C0.319,-0.53 0.348,-0.524 0.377,-0.513C0.405,-0.501 0.431,-0.485 0.453,-0.463C0.475,-0.441 0.493,-0.415 0.506,-0.385C0.519,-0.355 0.526,-0.321 0.527,-0.284C0.527,-0.273 0.523,-0.264 0.515,-0.257C0.507,-0.25 0.497,-0.246 0.487,-0.246L0.092,-0.246L0.074,-0.315L0.459,-0.315L0.443,-0.301L0.443,-0.323C0.44,-0.35 0.431,-0.374 0.416,-0.394C0.4,-0.413 0.381,-0.428 0.358,-0.439C0.336,-0.45 0.312,-0.455 0.288,-0.455C0.268,-0.455 0.248,-0.451 0.228,-0.444C0.208,-0.437 0.191,-0.426 0.175,-0.41C0.159,-0.395 0.147,-0.375 0.137,-0.35C0.128,-0.325 0.123,-0.296 0.123,-0.261C0.123,-0.222 0.131,-0.188 0.147,-0.159C0.162,-0.129 0.184,-0.106 0.212,-0.089C0.24,-0.072 0.273,-0.064 0.31,-0.064C0.333,-0.064 0.354,-0.067 0.371,-0.073C0.388,-0.079 0.403,-0.086 0.416,-0.095C0.428,-0.104 0.439,-0.114 0.448,-0.123C0.456,-0.129 0.465,-0.132 0.473,-0.132C0.483,-0.132 0.491,-0.129 0.497,-0.122C0.504,-0.115 0.507,-0.107 0.507,-0.098C0.507,-0.087 0.502,-0.077 0.491,-0.068C0.472,-0.047 0.447,-0.029 0.415,-0.013C0.383,0.002 0.349,0.01 0.313,0.01Z" style="fill:white;fill-rule:nonzero;"/>
                    </g>
                    <g transform="matrix(19.9857,71.2501,-71.2501,19.9857,1069.06,619.354)">
                        <path d="M0.162,-0.041C0.162,-0.029 0.158,-0.02 0.15,-0.012C0.142,-0.004 0.132,-0 0.121,-0C0.11,-0 0.1,-0.004 0.093,-0.012C0.085,-0.02 0.082,-0.029 0.082,-0.041L0.082,-0.7C0.082,-0.711 0.085,-0.72 0.093,-0.728C0.101,-0.736 0.111,-0.74 0.122,-0.74C0.134,-0.74 0.143,-0.736 0.151,-0.728C0.158,-0.72 0.162,-0.711 0.162,-0.7L0.162,-0.041Z" style="fill:white;fill-rule:nonzero;"/>
                    </g>
                    <g transform="matrix(16.8862,72.0476,-72.0476,16.8862,1073.55,635.243)">
                        <path d="M0.162,-0.041C0.162,-0.029 0.158,-0.02 0.15,-0.012C0.142,-0.004 0.132,-0 0.121,-0C0.11,-0 0.1,-0.004 0.093,-0.012C0.085,-0.02 0.082,-0.029 0.082,-0.041L0.082,-0.7C0.082,-0.711 0.085,-0.72 0.093,-0.728C0.101,-0.736 0.111,-0.74 0.122,-0.74C0.134,-0.74 0.143,-0.736 0.151,-0.728C0.158,-0.72 0.162,-0.711 0.162,-0.7L0.162,-0.041Z" style="fill:white;fill-rule:nonzero;"/>
                    </g>
                    <g transform="matrix(13.9119,72.6805,-72.6805,13.9119,1077.32,651.289)">
                        <path d="M0.151,-0.041C0.151,-0.03 0.147,-0.02 0.14,-0.012C0.132,-0.004 0.122,-0 0.111,-0C0.099,-0 0.089,-0.004 0.082,-0.012C0.075,-0.02 0.071,-0.03 0.071,-0.041L0.071,-0.485C0.071,-0.496 0.075,-0.506 0.083,-0.514C0.09,-0.521 0.1,-0.525 0.111,-0.525C0.122,-0.525 0.132,-0.521 0.14,-0.514C0.147,-0.506 0.151,-0.496 0.151,-0.485L0.151,-0.041ZM0.111,-0.591C0.094,-0.591 0.082,-0.594 0.074,-0.601C0.066,-0.608 0.062,-0.618 0.062,-0.632L0.062,-0.646C0.062,-0.66 0.066,-0.67 0.075,-0.677C0.084,-0.684 0.096,-0.687 0.112,-0.687C0.128,-0.687 0.14,-0.684 0.148,-0.677C0.156,-0.67 0.16,-0.66 0.16,-0.646L0.16,-0.632C0.16,-0.618 0.156,-0.608 0.148,-0.601C0.139,-0.594 0.127,-0.591 0.111,-0.591Z" style="fill:white;fill-rule:nonzero;"/>
                    </g>
                    <g transform="matrix(8.58965,73.4998,-73.4998,8.58965,1080.64,665.812)">
                        <path d="M0.461,-0.517C0.473,-0.517 0.482,-0.513 0.49,-0.505C0.497,-0.497 0.501,-0.488 0.501,-0.477L0.501,-0.204C0.501,-0.136 0.482,-0.084 0.444,-0.047C0.406,-0.01 0.354,0.008 0.287,0.008C0.22,0.008 0.168,-0.01 0.131,-0.047C0.093,-0.084 0.074,-0.136 0.074,-0.204L0.074,-0.477C0.074,-0.488 0.078,-0.497 0.086,-0.505C0.093,-0.513 0.103,-0.517 0.114,-0.517C0.126,-0.517 0.135,-0.513 0.143,-0.505C0.15,-0.497 0.154,-0.488 0.154,-0.477L0.154,-0.204C0.154,-0.158 0.166,-0.124 0.189,-0.101C0.212,-0.078 0.245,-0.066 0.287,-0.066C0.33,-0.066 0.363,-0.078 0.386,-0.101C0.409,-0.124 0.421,-0.158 0.421,-0.204L0.421,-0.477C0.421,-0.488 0.425,-0.497 0.432,-0.505C0.44,-0.513 0.449,-0.517 0.461,-0.517Z" style="fill:white;fill-rule:nonzero;"/>
                    </g>
                    <g transform="matrix(-1.61307,73.9824,-73.9824,-1.61307,1086.37,706.666)">
                        <path d="M0.321,-0.525C0.366,-0.525 0.403,-0.514 0.431,-0.491C0.459,-0.468 0.478,-0.435 0.488,-0.393L0.473,-0.393L0.48,-0.411C0.488,-0.429 0.502,-0.447 0.521,-0.465C0.54,-0.482 0.562,-0.497 0.588,-0.508C0.613,-0.519 0.639,-0.525 0.667,-0.525C0.711,-0.525 0.745,-0.516 0.771,-0.497C0.796,-0.478 0.814,-0.452 0.825,-0.421C0.836,-0.389 0.842,-0.353 0.842,-0.314L0.842,-0.041C0.842,-0.029 0.838,-0.02 0.83,-0.012C0.823,-0.004 0.813,-0 0.802,-0C0.79,-0 0.78,-0.004 0.773,-0.012C0.765,-0.02 0.762,-0.029 0.762,-0.041L0.762,-0.312C0.762,-0.338 0.758,-0.361 0.75,-0.382C0.743,-0.403 0.73,-0.42 0.713,-0.432C0.696,-0.445 0.673,-0.451 0.644,-0.451C0.616,-0.451 0.592,-0.445 0.569,-0.432C0.546,-0.42 0.528,-0.403 0.515,-0.382C0.502,-0.361 0.495,-0.338 0.495,-0.312L0.495,-0.041C0.495,-0.029 0.491,-0.02 0.484,-0.012C0.476,-0.004 0.467,-0 0.455,-0C0.443,-0 0.434,-0.004 0.426,-0.012C0.419,-0.02 0.415,-0.029 0.415,-0.041L0.415,-0.315C0.415,-0.34 0.411,-0.363 0.404,-0.383C0.397,-0.404 0.385,-0.42 0.369,-0.433C0.352,-0.445 0.329,-0.451 0.3,-0.451C0.273,-0.451 0.249,-0.445 0.227,-0.433C0.205,-0.42 0.187,-0.404 0.174,-0.383C0.161,-0.363 0.154,-0.34 0.154,-0.315L0.154,-0.041C0.154,-0.029 0.15,-0.02 0.143,-0.012C0.135,-0.004 0.125,-0 0.114,-0C0.102,-0 0.093,-0.004 0.085,-0.012C0.078,-0.02 0.074,-0.029 0.074,-0.041L0.074,-0.477C0.074,-0.488 0.078,-0.497 0.086,-0.505C0.093,-0.513 0.103,-0.517 0.114,-0.517C0.126,-0.517 0.135,-0.513 0.143,-0.505C0.15,-0.497 0.154,-0.488 0.154,-0.477L0.154,-0.401L0.132,-0.377C0.135,-0.394 0.141,-0.411 0.153,-0.429C0.164,-0.446 0.178,-0.462 0.195,-0.477C0.212,-0.491 0.231,-0.503 0.253,-0.512C0.274,-0.521 0.297,-0.525 0.321,-0.525Z" style="fill:white;fill-rule:nonzero;"/>
                    </g>
                </g>
                <g transform="matrix(-0.902011,5.55112e-17,5.55112e-17,0.902011,1189.74,360.902)">
                    <path d="M389.858,397.829C390.019,397.334 390.48,397 391,397C391.52,397 391.981,397.334 392.142,397.829L398.792,418.208L419.171,424.858C419.666,425.019 420,425.48 420,426C420,426.52 419.666,426.981 419.171,427.142L398.792,433.792L392.142,454.171C391.981,454.666 391.52,455 391,455C390.48,455 390.019,454.666 389.858,454.171L383.208,433.792L362.829,427.142C362.334,426.981 362,426.52 362,426C362,425.48 362.334,425.019 362.829,424.858L383.208,418.208L389.858,397.829Z" style="fill:white;"/>
                </g>
                <g transform="matrix(-0.902011,-1.38778e-16,-1.38778e-16,0.902011,1090.25,458.11)">
                    <path d="M389.858,397.829C390.019,397.334 390.48,397 391,397C391.52,397 391.981,397.334 392.142,397.829L398.792,418.208L419.171,424.858C419.666,425.019 420,425.48 420,426C420,426.52 419.666,426.981 419.171,427.142L398.792,433.792L392.142,454.171C391.981,454.666 391.52,455 391,455C390.48,455 390.019,454.666 389.858,454.171L383.208,433.792L362.829,427.142C362.334,426.981 362,426.52 362,426C362,425.48 362.334,425.019 362.829,424.858L383.208,418.208L389.858,397.829Z" style="fill:white;"/>
                </g>
                <g transform="matrix(-0.902011,5.55112e-17,5.55112e-17,0.902011,1144.41,413.709)">
                    <path d="M389.858,397.829C390.019,397.334 390.48,397 391,397C391.52,397 391.981,397.334 392.142,397.829L398.792,418.208L419.171,424.858C419.666,425.019 420,425.48 420,426C420,426.52 419.666,426.981 419.171,427.142L398.792,433.792L392.142,454.171C391.981,454.666 391.52,455 391,455C390.48,455 390.019,454.666 389.858,454.171L383.208,433.792L362.829,427.142C362.334,426.981 362,426.52 362,426C362,425.48 362.334,425.019 362.829,424.858L383.208,418.208L389.858,397.829Z" style="fill:white;"/>
                </g>
                <g transform="matrix(-0.902011,5.55112e-17,5.55112e-17,0.902011,1225.33,300.827)">
                    <path d="M389.858,397.829C390.019,397.334 390.48,397 391,397C391.52,397 391.981,397.334 392.142,397.829L398.792,418.208L419.171,424.858C419.666,425.019 420,425.48 420,426C420,426.52 419.666,426.981 419.171,427.142L398.792,433.792L392.142,454.171C391.981,454.666 391.52,455 391,455C390.48,455 390.019,454.666 389.858,454.171L383.208,433.792L362.829,427.142C362.334,426.981 362,426.52 362,426C362,425.48 362.334,425.019 362.829,424.858L383.208,418.208L389.858,397.829Z" style="fill:white;"/>
                </g>
                <g transform="matrix(-0.902011,2.77556e-17,2.77556e-17,0.902011,1249.88,235.903)">
                    <path d="M389.858,397.829C390.019,397.334 390.48,397 391,397C391.52,397 391.981,397.334 392.142,397.829L398.792,418.208L419.171,424.858C419.666,425.019 420,425.48 420,426C420,426.52 419.666,426.981 419.171,427.142L398.792,433.792L392.142,454.171C391.981,454.666 391.52,455 391,455C390.48,455 390.019,454.666 389.858,454.171L383.208,433.792L362.829,427.142C362.334,426.981 362,426.52 362,426C362,425.48 362.334,425.019 362.829,424.858L383.208,418.208L389.858,397.829Z" style="fill:white;"/>
                </g>
                <g transform="matrix(0.902011,5.55112e-17,-5.55112e-17,0.902011,-165.734,360.902)">
                    <path d="M389.858,397.829C390.019,397.334 390.48,397 391,397C391.52,397 391.981,397.334 392.142,397.829L398.792,418.208L419.171,424.858C419.666,425.019 420,425.48 420,426C420,426.52 419.666,426.981 419.171,427.142L398.792,433.792L392.142,454.171C391.981,454.666 391.52,455 391,455C390.48,455 390.019,454.666 389.858,454.171L383.208,433.792L362.829,427.142C362.334,426.981 362,426.52 362,426C362,425.48 362.334,425.019 362.829,424.858L383.208,418.208L389.858,397.829Z" style="fill:white;"/>
                </g>
                <g transform="matrix(0.902011,-1.38778e-16,1.38778e-16,0.902011,-66.2468,458.11)">
                    <path d="M389.858,397.829C390.019,397.334 390.48,397 391,397C391.52,397 391.981,397.334 392.142,397.829L398.792,418.208L419.171,424.858C419.666,425.019 420,425.48 420,426C420,426.52 419.666,426.981 419.171,427.142L398.792,433.792L392.142,454.171C391.981,454.666 391.52,455 391,455C390.48,455 390.019,454.666 389.858,454.171L383.208,433.792L362.829,427.142C362.334,426.981 362,426.52 362,426C362,425.48 362.334,425.019 362.829,424.858L383.208,418.208L389.858,397.829Z" style="fill:white;"/>
                </g>
                <g transform="matrix(0.902011,5.55112e-17,-5.55112e-17,0.902011,-120.406,413.709)">
                    <path d="M389.858,397.829C390.019,397.334 390.48,397 391,397C391.52,397 391.981,397.334 392.142,397.829L398.792,418.208L419.171,424.858C419.666,425.019 420,425.48 420,426C420,426.52 419.666,426.981 419.171,427.142L398.792,433.792L392.142,454.171C391.981,454.666 391.52,455 391,455C390.48,455 390.019,454.666 389.858,454.171L383.208,433.792L362.829,427.142C362.334,426.981 362,426.52 362,426C362,425.48 362.334,425.019 362.829,424.858L383.208,418.208L389.858,397.829Z" style="fill:white;"/>
                </g>
                <g transform="matrix(0.902011,5.55112e-17,-5.55112e-17,0.902011,-201.326,300.827)">
                    <path d="M389.858,397.829C390.019,397.334 390.48,397 391,397C391.52,397 391.981,397.334 392.142,397.829L398.792,418.208L419.171,424.858C419.666,425.019 420,425.48 420,426C420,426.52 419.666,426.981 419.171,427.142L398.792,433.792L392.142,454.171C391.981,454.666 391.52,455 391,455C390.48,455 390.019,454.666 389.858,454.171L383.208,433.792L362.829,427.142C362.334,426.981 362,426.52 362,426C362,425.48 362.334,425.019 362.829,424.858L383.208,418.208L389.858,397.829Z" style="fill:white;"/>
                </g>
                <g transform="matrix(0.902011,5.55112e-17,-5.55112e-17,0.902011,-225.854,235.52)">
                    <path d="M389.858,397.829C390.019,397.334 390.48,397 391,397C391.52,397 391.981,397.334 392.142,397.829L398.792,418.208L419.171,424.858C419.666,425.019 420,425.48 420,426C420,426.52 419.666,426.981 419.171,427.142L398.792,433.792L392.142,454.171C391.981,454.666 391.52,455 391,455C390.48,455 390.019,454.666 389.858,454.171L383.208,433.792L362.829,427.142C362.334,426.981 362,426.52 362,426C362,425.48 362.334,425.019 362.829,424.858L383.208,418.208L389.858,397.829Z" style="fill:white;"/>
                </g>
                <g id="Primrose" transform="matrix(1,0,0,1,8,8)">
                    <g transform="matrix(2.13063,0,0,-2.13063,-297.517,1119.39)">
                        <path d="M394.5,174.41C388.348,175.812 386.605,176.672 382.777,180.195C374.691,187.645 365.141,205.758 361.129,221.262C360.02,225.547 358.918,228.449 358.008,229.48C357.848,229.66 356.293,228.426 354.547,226.734C350.988,223.289 338.73,215.992 332.777,213.781C325.918,211.234 315.555,209.121 309.375,209.012C304.508,208.922 302.723,209.223 299.918,210.605C294.602,213.227 292.672,219.113 295.133,225.215C295.551,226.25 295.273,226.527 293.828,226.527C291.102,226.527 286.109,231.516 284.945,235.402C283.676,239.652 284.809,245.344 288.383,252.687C289.82,255.648 291,258.215 291,258.395C291,258.578 292.91,262.668 295.246,267.488C299.766,276.82 302.27,280.242 306.48,282.844C309.363,284.625 309.25,284.988 304.98,287.578C296.242,292.879 286.348,302.605 282.508,309.668C280.27,313.785 278.969,321.207 280.336,322.051C280.84,322.363 280.641,323.516 279.766,325.344C278.16,328.695 276.875,342.027 278.156,342.027C278.605,342.027 279.184,342.867 279.438,343.891C280.051,346.336 284.199,348.836 288.188,349.164C290.41,349.348 291.277,349.727 291.059,350.414C290.426,352.379 290.98,355.73 292.312,358.012C296.387,364.988 318.809,368.383 331.5,363.945C333.77,363.152 336.805,362.281 338.25,362.016C339.695,361.746 343.816,359.875 347.414,357.859C352.07,355.246 354.145,354.437 354.625,355.047C354.996,355.519 356.016,357.844 356.891,360.219C362.543,375.555 374.344,389.719 385.859,394.992C393.531,398.504 401.355,396.68 403.602,390.855L404.297,389.059L406,390.66C408.305,392.824 414.23,394.519 417.59,393.973C423.23,393.059 429,384.945 429,377.934C429,376.094 429.73,374.555 431.621,372.395C435.168,368.344 435.848,365.754 436.297,354.605C436.711,344.184 435.766,335.488 433.5,328.898C432.719,326.633 432.148,324.742 432.227,324.695C432.309,324.648 434.398,324.492 436.875,324.352C439.352,324.211 444.414,323.215 448.125,322.137C462.801,317.875 470.523,312.258 475.289,302.379C477.797,297.176 478.051,296.07 478.066,290.277C478.074,286.773 477.801,283.145 477.453,282.215C476.973,280.922 477.098,280.527 477.984,280.527C479.594,280.527 482.25,276.945 482.25,274.777C482.25,268.492 475.906,262.164 463.312,255.887C453.086,250.789 443.035,247.793 434.238,247.215C430.242,246.953 428.66,246.566 428.746,245.875C428.812,245.34 429.234,243.086 429.684,240.863C430.715,235.754 430.738,219.82 429.727,211.508C427.973,197.141 422.277,183.523 416.535,179.973C413.723,178.234 411.773,178.512 409.484,180.969C408.676,181.836 407.918,182.398 407.797,182.223C407.68,182.047 407.004,180.637 406.301,179.086C405.109,176.469 401.098,173.16 399.375,173.379C398.961,173.43 396.77,173.895 394.5,174.41Z" style="fill:white;stroke:black;stroke-width:1.88px;"/>
                    </g>
                    <g transform="matrix(0.889488,0,0,-0.889488,174.046,765.569)">
                        <path d="M394.5,174.41C388.348,175.812 386.605,176.672 382.777,180.195C374.691,187.645 365.141,205.758 361.129,221.262C360.02,225.547 358.918,228.449 358.008,229.48C357.848,229.66 356.293,228.426 354.547,226.734C350.988,223.289 338.73,215.992 332.777,213.781C325.918,211.234 315.555,209.121 309.375,209.012C304.508,208.922 302.723,209.223 299.918,210.605C294.602,213.227 292.672,219.113 295.133,225.215C295.551,226.25 295.273,226.527 293.828,226.527C291.102,226.527 286.109,231.516 284.945,235.402C283.676,239.652 284.809,245.344 288.383,252.687C289.82,255.648 291,258.215 291,258.395C291,258.578 292.91,262.668 295.246,267.488C299.766,276.82 302.27,280.242 306.48,282.844C309.363,284.625 309.25,284.988 304.98,287.578C296.242,292.879 286.348,302.605 282.508,309.668C280.27,313.785 278.969,321.207 280.336,322.051C280.84,322.363 280.641,323.516 279.766,325.344C278.16,328.695 276.875,342.027 278.156,342.027C278.605,342.027 279.184,342.867 279.438,343.891C280.051,346.336 284.199,348.836 288.188,349.164C290.41,349.348 291.277,349.727 291.059,350.414C290.426,352.379 290.98,355.73 292.312,358.012C296.387,364.988 318.809,368.383 331.5,363.945C333.77,363.152 336.805,362.281 338.25,362.016C339.695,361.746 343.816,359.875 347.414,357.859C352.07,355.246 354.145,354.437 354.625,355.047C354.996,355.519 356.016,357.844 356.891,360.219C362.543,375.555 374.344,389.719 385.859,394.992C393.531,398.504 401.355,396.68 403.602,390.855L404.297,389.059L406,390.66C408.305,392.824 414.23,394.519 417.59,393.973C423.23,393.059 429,384.945 429,377.934C429,376.094 429.73,374.555 431.621,372.395C435.168,368.344 435.848,365.754 436.297,354.605C436.711,344.184 435.766,335.488 433.5,328.898C432.719,326.633 432.148,324.742 432.227,324.695C432.309,324.648 434.398,324.492 436.875,324.352C439.352,324.211 444.414,323.215 448.125,322.137C462.801,317.875 470.523,312.258 475.289,302.379C477.797,297.176 478.051,296.07 478.066,290.277C478.074,286.773 477.801,283.145 477.453,282.215C476.973,280.922 477.098,280.527 477.984,280.527C479.594,280.527 482.25,276.945 482.25,274.777C482.25,268.492 475.906,262.164 463.312,255.887C453.086,250.789 443.035,247.793 434.238,247.215C430.242,246.953 428.66,246.566 428.746,245.875C428.812,245.34 429.234,243.086 429.684,240.863C430.715,235.754 430.738,219.82 429.727,211.508C427.973,197.141 422.277,183.523 416.535,179.973C413.723,178.234 411.773,178.512 409.484,180.969C408.676,181.836 407.918,182.398 407.797,182.223C407.68,182.047 407.004,180.637 406.301,179.086C405.109,176.469 401.098,173.16 399.375,173.379C398.961,173.43 396.77,173.895 394.5,174.41Z" style="fill:rgb(255,232,182);stroke:black;stroke-width:4.5px;stroke-linejoin:round;stroke-miterlimit:2;"/>
                    </g>
                    <path d="M616,595C616,595 609.555,561.343 556,548" style="fill:none;stroke:black;stroke-width:4px;stroke-linecap:round;"/>
                    <path d="M457,364C457,364 453.445,408.919 489,449" style="fill:none;stroke:black;stroke-width:4px;stroke-linecap:round;"/>
                    <path d="M359,512C359,512 395.727,535.201 448,512" style="fill:none;stroke:black;stroke-width:4px;stroke-linecap:round;"/>
                    <path d="M465,631C465,631 492.764,614.076 492,562" style="fill:none;stroke:black;stroke-width:4px;stroke-linecap:round;"/>
                    <path d="M624,428C624,428 589.63,435.868 559,476" style="fill:none;stroke:black;stroke-width:4px;stroke-linecap:round;"/>
                </g>
            </g>
        </g>
    </g>
    <g transform="matrix(2.99551,0,0,2.99551,-347.494,-145.42)">
        <g transform="matrix(12,0,0,12,152.811,68.9589)">
            <path d="M0.292,0.01C0.242,0.01 0.199,0.003 0.162,-0.012C0.124,-0.027 0.088,-0.05 0.054,-0.082C0.049,-0.086 0.045,-0.091 0.042,-0.097C0.039,-0.103 0.038,-0.109 0.038,-0.116C0.038,-0.126 0.041,-0.136 0.049,-0.144C0.057,-0.152 0.067,-0.157 0.078,-0.157C0.087,-0.157 0.095,-0.153 0.103,-0.146C0.129,-0.12 0.157,-0.101 0.188,-0.088C0.218,-0.074 0.252,-0.068 0.29,-0.068C0.319,-0.068 0.345,-0.072 0.369,-0.082C0.393,-0.091 0.412,-0.104 0.426,-0.121C0.44,-0.137 0.447,-0.157 0.447,-0.179C0.446,-0.206 0.439,-0.228 0.424,-0.245C0.409,-0.262 0.388,-0.277 0.361,-0.288C0.335,-0.3 0.304,-0.31 0.27,-0.318C0.239,-0.325 0.211,-0.334 0.186,-0.345C0.16,-0.355 0.138,-0.368 0.119,-0.384C0.1,-0.4 0.085,-0.419 0.075,-0.441C0.065,-0.463 0.06,-0.49 0.06,-0.52C0.06,-0.558 0.07,-0.591 0.09,-0.62C0.11,-0.648 0.137,-0.67 0.173,-0.686C0.208,-0.702 0.249,-0.71 0.295,-0.71C0.335,-0.71 0.374,-0.703 0.41,-0.69C0.447,-0.677 0.476,-0.658 0.498,-0.635C0.511,-0.622 0.518,-0.61 0.518,-0.598C0.518,-0.588 0.513,-0.579 0.505,-0.571C0.497,-0.562 0.488,-0.558 0.477,-0.558C0.469,-0.558 0.463,-0.561 0.457,-0.566C0.446,-0.578 0.431,-0.59 0.414,-0.6C0.396,-0.61 0.377,-0.618 0.357,-0.624C0.336,-0.63 0.315,-0.633 0.295,-0.633C0.264,-0.633 0.237,-0.628 0.214,-0.619C0.191,-0.61 0.172,-0.597 0.16,-0.581C0.147,-0.565 0.14,-0.546 0.14,-0.523C0.14,-0.498 0.147,-0.477 0.162,-0.461C0.177,-0.444 0.196,-0.431 0.221,-0.421C0.246,-0.41 0.273,-0.401 0.303,-0.393C0.335,-0.385 0.365,-0.375 0.393,-0.365C0.421,-0.355 0.445,-0.342 0.465,-0.327C0.485,-0.311 0.501,-0.292 0.512,-0.268C0.523,-0.245 0.528,-0.216 0.528,-0.181C0.528,-0.144 0.518,-0.111 0.497,-0.083C0.476,-0.054 0.448,-0.031 0.412,-0.015C0.377,0.001 0.337,0.01 0.292,0.01Z" style="fill-rule:nonzero;"/>
        </g>
        <g transform="matrix(12,0,0,12,159.693,68.9589)">
            <path d="M0.331,-0.53C0.376,-0.53 0.412,-0.521 0.438,-0.502C0.464,-0.483 0.483,-0.458 0.494,-0.427C0.505,-0.395 0.51,-0.36 0.51,-0.322L0.51,-0.041C0.51,-0.029 0.506,-0.02 0.499,-0.012C0.491,-0.004 0.481,-0 0.47,-0C0.458,-0 0.449,-0.004 0.441,-0.012C0.434,-0.02 0.43,-0.029 0.43,-0.041L0.43,-0.32C0.43,-0.345 0.426,-0.368 0.419,-0.388C0.411,-0.409 0.398,-0.425 0.38,-0.438C0.362,-0.45 0.338,-0.456 0.308,-0.456C0.28,-0.456 0.254,-0.45 0.231,-0.438C0.208,-0.425 0.189,-0.409 0.175,-0.388C0.161,-0.368 0.154,-0.345 0.154,-0.32L0.154,-0.041C0.154,-0.029 0.15,-0.02 0.143,-0.012C0.135,-0.004 0.125,-0 0.114,-0C0.102,-0 0.093,-0.004 0.085,-0.012C0.078,-0.02 0.074,-0.029 0.074,-0.041L0.074,-0.477C0.074,-0.488 0.078,-0.497 0.086,-0.505C0.093,-0.513 0.103,-0.517 0.114,-0.517C0.126,-0.517 0.135,-0.513 0.143,-0.505C0.15,-0.497 0.154,-0.488 0.154,-0.477L0.154,-0.406L0.134,-0.384C0.137,-0.401 0.145,-0.419 0.157,-0.436C0.169,-0.454 0.184,-0.47 0.202,-0.484C0.22,-0.498 0.24,-0.509 0.262,-0.518C0.284,-0.526 0.307,-0.53 0.331,-0.53Z" style="fill-rule:nonzero;"/>
        </g>
        <g transform="matrix(12,0,0,12,166.701,68.9589)">
            <path d="M0.565,-0.26C0.565,-0.208 0.553,-0.161 0.53,-0.121C0.507,-0.08 0.476,-0.048 0.438,-0.025C0.399,-0.002 0.355,0.01 0.306,0.01C0.257,0.01 0.213,-0.002 0.174,-0.025C0.135,-0.048 0.103,-0.08 0.081,-0.121C0.057,-0.161 0.046,-0.208 0.046,-0.26C0.046,-0.312 0.057,-0.358 0.081,-0.399C0.103,-0.44 0.135,-0.472 0.174,-0.495C0.213,-0.518 0.257,-0.53 0.306,-0.53C0.355,-0.53 0.399,-0.518 0.438,-0.495C0.476,-0.472 0.507,-0.44 0.53,-0.399C0.553,-0.358 0.565,-0.312 0.565,-0.26ZM0.485,-0.26C0.485,-0.298 0.477,-0.332 0.461,-0.362C0.445,-0.391 0.424,-0.414 0.397,-0.431C0.37,-0.448 0.339,-0.456 0.306,-0.456C0.272,-0.456 0.241,-0.448 0.214,-0.431C0.187,-0.414 0.166,-0.391 0.15,-0.362C0.134,-0.332 0.126,-0.298 0.126,-0.26C0.126,-0.222 0.134,-0.188 0.15,-0.159C0.166,-0.129 0.187,-0.106 0.214,-0.089C0.241,-0.072 0.272,-0.064 0.306,-0.064C0.339,-0.064 0.37,-0.072 0.397,-0.089C0.424,-0.106 0.445,-0.129 0.461,-0.159C0.477,-0.188 0.485,-0.222 0.485,-0.26Z" style="fill-rule:nonzero;"/>
        </g>
        <g transform="matrix(12,0,0,12,174.027,68.9589)">
            <path d="M0.684,-0.526C0.694,-0.526 0.703,-0.522 0.711,-0.515C0.719,-0.508 0.723,-0.498 0.723,-0.486C0.723,-0.483 0.723,-0.48 0.722,-0.477C0.722,-0.474 0.721,-0.471 0.72,-0.469L0.566,-0.026C0.563,-0.017 0.557,-0.01 0.55,-0.006C0.542,-0.001 0.534,0.001 0.525,-0C0.51,-0.001 0.498,-0.009 0.49,-0.026L0.364,-0.342L0.384,-0.339L0.27,-0.026C0.262,-0.009 0.251,-0.001 0.235,-0C0.226,0.001 0.218,-0.001 0.21,-0.006C0.202,-0.01 0.197,-0.017 0.194,-0.026L0.037,-0.469C0.035,-0.475 0.034,-0.48 0.034,-0.486C0.034,-0.497 0.038,-0.506 0.045,-0.514C0.052,-0.522 0.062,-0.526 0.075,-0.526C0.083,-0.526 0.09,-0.524 0.097,-0.52C0.104,-0.516 0.108,-0.509 0.111,-0.501L0.246,-0.107L0.225,-0.108L0.342,-0.408C0.349,-0.424 0.361,-0.432 0.379,-0.433C0.388,-0.432 0.395,-0.43 0.401,-0.426C0.407,-0.422 0.411,-0.416 0.414,-0.408L0.536,-0.108L0.511,-0.106L0.646,-0.501C0.652,-0.518 0.664,-0.526 0.684,-0.526Z" style="fill-rule:nonzero;"/>
        </g>
        <g transform="matrix(12,0,0,12,183.111,68.9589)">
            <path d="M0.329,-0.53C0.374,-0.53 0.415,-0.519 0.451,-0.496C0.487,-0.472 0.515,-0.441 0.536,-0.401C0.557,-0.361 0.568,-0.314 0.568,-0.262C0.568,-0.209 0.557,-0.163 0.536,-0.122C0.515,-0.081 0.487,-0.049 0.451,-0.025C0.415,-0.002 0.375,0.01 0.331,0.01C0.306,0.01 0.283,0.006 0.261,-0.002C0.239,-0.009 0.22,-0.019 0.202,-0.032C0.185,-0.045 0.17,-0.059 0.158,-0.075C0.146,-0.091 0.137,-0.106 0.132,-0.122L0.154,-0.136L0.154,-0.036C0.154,-0.024 0.15,-0.015 0.143,-0.007C0.135,0.001 0.126,0.005 0.114,0.005C0.103,0.005 0.093,0.001 0.086,-0.007C0.078,-0.014 0.074,-0.024 0.074,-0.036L0.074,-0.699C0.074,-0.71 0.078,-0.72 0.085,-0.728C0.093,-0.736 0.102,-0.74 0.114,-0.74C0.126,-0.74 0.135,-0.736 0.143,-0.728C0.15,-0.72 0.154,-0.71 0.154,-0.699L0.154,-0.391L0.139,-0.399C0.144,-0.416 0.152,-0.432 0.164,-0.447C0.175,-0.463 0.19,-0.477 0.207,-0.489C0.224,-0.502 0.242,-0.512 0.263,-0.519C0.284,-0.526 0.306,-0.53 0.329,-0.53ZM0.32,-0.456C0.286,-0.456 0.257,-0.448 0.231,-0.431C0.206,-0.414 0.186,-0.391 0.171,-0.362C0.157,-0.333 0.15,-0.299 0.15,-0.262C0.15,-0.224 0.157,-0.191 0.171,-0.161C0.186,-0.131 0.206,-0.107 0.231,-0.09C0.257,-0.073 0.286,-0.064 0.32,-0.064C0.353,-0.064 0.383,-0.073 0.408,-0.09C0.433,-0.107 0.453,-0.131 0.468,-0.161C0.483,-0.191 0.49,-0.225 0.49,-0.262C0.49,-0.299 0.483,-0.333 0.468,-0.362C0.453,-0.391 0.433,-0.414 0.408,-0.431C0.383,-0.448 0.353,-0.456 0.32,-0.456Z" style="fill-rule:nonzero;"/>
        </g>
        <g transform="matrix(12,0,0,12,190.473,68.9589)">
            <path d="M0.313,0.01C0.259,0.01 0.213,-0.001 0.173,-0.024C0.133,-0.046 0.101,-0.077 0.079,-0.117C0.057,-0.157 0.046,-0.203 0.046,-0.255C0.046,-0.313 0.057,-0.362 0.081,-0.403C0.103,-0.444 0.133,-0.475 0.17,-0.497C0.207,-0.519 0.246,-0.53 0.288,-0.53C0.319,-0.53 0.348,-0.524 0.377,-0.513C0.405,-0.501 0.431,-0.485 0.453,-0.463C0.475,-0.441 0.493,-0.415 0.506,-0.385C0.519,-0.355 0.526,-0.321 0.527,-0.284C0.527,-0.273 0.523,-0.264 0.515,-0.257C0.507,-0.25 0.497,-0.246 0.487,-0.246L0.092,-0.246L0.074,-0.315L0.459,-0.315L0.443,-0.301L0.443,-0.323C0.44,-0.35 0.431,-0.374 0.416,-0.394C0.4,-0.413 0.381,-0.428 0.358,-0.439C0.336,-0.45 0.312,-0.455 0.288,-0.455C0.268,-0.455 0.248,-0.451 0.228,-0.444C0.208,-0.437 0.191,-0.426 0.175,-0.41C0.159,-0.395 0.147,-0.375 0.137,-0.35C0.128,-0.325 0.123,-0.296 0.123,-0.261C0.123,-0.222 0.131,-0.188 0.147,-0.159C0.162,-0.129 0.184,-0.106 0.212,-0.089C0.24,-0.072 0.273,-0.064 0.31,-0.064C0.333,-0.064 0.354,-0.067 0.371,-0.073C0.388,-0.079 0.403,-0.086 0.416,-0.095C0.428,-0.104 0.439,-0.114 0.448,-0.123C0.456,-0.129 0.465,-0.132 0.473,-0.132C0.483,-0.132 0.491,-0.129 0.497,-0.122C0.504,-0.115 0.507,-0.107 0.507,-0.098C0.507,-0.087 0.502,-0.077 0.491,-0.068C0.472,-0.047 0.447,-0.029 0.415,-0.013C0.383,0.002 0.349,0.01 0.313,0.01Z" style="fill-rule:nonzero;"/>
        </g>
        <g transform="matrix(12,0,0,12,197.349,68.9589)">
            <path d="M0.162,-0.041C0.162,-0.029 0.158,-0.02 0.15,-0.012C0.142,-0.004 0.132,-0 0.121,-0C0.11,-0 0.1,-0.004 0.093,-0.012C0.085,-0.02 0.082,-0.029 0.082,-0.041L0.082,-0.7C0.082,-0.711 0.085,-0.72 0.093,-0.728C0.101,-0.736 0.111,-0.74 0.122,-0.74C0.134,-0.74 0.143,-0.736 0.151,-0.728C0.158,-0.72 0.162,-0.711 0.162,-0.7L0.162,-0.041Z" style="fill-rule:nonzero;"/>
        </g>
        <g transform="matrix(12,0,0,12,200.265,68.9589)">
            <path d="M0.162,-0.041C0.162,-0.029 0.158,-0.02 0.15,-0.012C0.142,-0.004 0.132,-0 0.121,-0C0.11,-0 0.1,-0.004 0.093,-0.012C0.085,-0.02 0.082,-0.029 0.082,-0.041L0.082,-0.7C0.082,-0.711 0.085,-0.72 0.093,-0.728C0.101,-0.736 0.111,-0.74 0.122,-0.74C0.134,-0.74 0.143,-0.736 0.151,-0.728C0.158,-0.72 0.162,-0.711 0.162,-0.7L0.162,-0.041Z" style="fill-rule:nonzero;"/>
        </g>
        <g transform="matrix(12,0,0,12,203.181,68.9589)">
            <path d="M0.151,-0.041C0.151,-0.03 0.147,-0.02 0.14,-0.012C0.132,-0.004 0.122,-0 0.111,-0C0.099,-0 0.089,-0.004 0.082,-0.012C0.075,-0.02 0.071,-0.03 0.071,-0.041L0.071,-0.485C0.071,-0.496 0.075,-0.506 0.083,-0.514C0.09,-0.521 0.1,-0.525 0.111,-0.525C0.122,-0.525 0.132,-0.521 0.14,-0.514C0.147,-0.506 0.151,-0.496 0.151,-0.485L0.151,-0.041ZM0.111,-0.591C0.094,-0.591 0.082,-0.594 0.074,-0.601C0.066,-0.608 0.062,-0.618 0.062,-0.632L0.062,-0.646C0.062,-0.66 0.066,-0.67 0.075,-0.677C0.084,-0.684 0.096,-0.687 0.112,-0.687C0.128,-0.687 0.14,-0.684 0.148,-0.677C0.156,-0.67 0.16,-0.66 0.16,-0.646L0.16,-0.632C0.16,-0.618 0.156,-0.608 0.148,-0.601C0.139,-0.594 0.127,-0.591 0.111,-0.591Z" style="fill-rule:nonzero;"/>
        </g>
        <g transform="matrix(12,0,0,12,205.833,68.9589)">
            <path d="M0.461,-0.517C0.473,-0.517 0.482,-0.513 0.49,-0.505C0.497,-0.497 0.501,-0.488 0.501,-0.477L0.501,-0.204C0.501,-0.136 0.482,-0.084 0.444,-0.047C0.406,-0.01 0.354,0.008 0.287,0.008C0.22,0.008 0.168,-0.01 0.131,-0.047C0.093,-0.084 0.074,-0.136 0.074,-0.204L0.074,-0.477C0.074,-0.488 0.078,-0.497 0.086,-0.505C0.093,-0.513 0.103,-0.517 0.114,-0.517C0.126,-0.517 0.135,-0.513 0.143,-0.505C0.15,-0.497 0.154,-0.488 0.154,-0.477L0.154,-0.204C0.154,-0.158 0.166,-0.124 0.189,-0.101C0.212,-0.078 0.245,-0.066 0.287,-0.066C0.33,-0.066 0.363,-0.078 0.386,-0.101C0.409,-0.124 0.421,-0.158 0.421,-0.204L0.421,-0.477C0.421,-0.488 0.425,-0.497 0.432,-0.505C0.44,-0.513 0.449,-0.517 0.461,-0.517Z" style="fill-rule:nonzero;"/>
        </g>
        <g transform="matrix(12,0,0,12,212.733,68.9589)">
            <path d="M0.321,-0.525C0.366,-0.525 0.403,-0.514 0.431,-0.491C0.459,-0.468 0.478,-0.435 0.488,-0.393L0.473,-0.393L0.48,-0.411C0.488,-0.429 0.502,-0.447 0.521,-0.465C0.54,-0.482 0.562,-0.497 0.588,-0.508C0.613,-0.519 0.639,-0.525 0.667,-0.525C0.711,-0.525 0.745,-0.516 0.771,-0.497C0.796,-0.478 0.814,-0.452 0.825,-0.421C0.836,-0.389 0.842,-0.353 0.842,-0.314L0.842,-0.041C0.842,-0.029 0.838,-0.02 0.83,-0.012C0.823,-0.004 0.813,-0 0.802,-0C0.79,-0 0.78,-0.004 0.773,-0.012C0.765,-0.02 0.762,-0.029 0.762,-0.041L0.762,-0.312C0.762,-0.338 0.758,-0.361 0.75,-0.382C0.743,-0.403 0.73,-0.42 0.713,-0.432C0.696,-0.445 0.673,-0.451 0.644,-0.451C0.616,-0.451 0.592,-0.445 0.569,-0.432C0.546,-0.42 0.528,-0.403 0.515,-0.382C0.502,-0.361 0.495,-0.338 0.495,-0.312L0.495,-0.041C0.495,-0.029 0.491,-0.02 0.484,-0.012C0.476,-0.004 0.467,-0 0.455,-0C0.443,-0 0.434,-0.004 0.426,-0.012C0.419,-0.02 0.415,-0.029 0.415,-0.041L0.415,-0.315C0.415,-0.34 0.411,-0.363 0.404,-0.383C0.397,-0.404 0.385,-0.42 0.369,-0.433C0.352,-0.445 0.329,-0.451 0.3,-0.451C0.273,-0.451 0.249,-0.445 0.227,-0.433C0.205,-0.42 0.187,-0.404 0.174,-0.383C0.161,-0.363 0.154,-0.34 0.154,-0.315L0.154,-0.041C0.154,-0.029 0.15,-0.02 0.143,-0.012C0.135,-0.004 0.125,-0 0.114,-0C0.102,-0 0.093,-0.004 0.085,-0.012C0.078,-0.02 0.074,-0.029 0.074,-0.041L0.074,-0.477C0.074,-0.488 0.078,-0.497 0.086,-0.505C0.093,-0.513 0.103,-0.517 0.114,-0.517C0.126,-0.517 0.135,-0.513 0.143,-0.505C0.15,-0.497 0.154,-0.488 0.154,-0.477L0.154,-0.401L0.132,-0.377C0.135,-0.394 0.141,-0.411 0.153,-0.429C0.164,-0.446 0.178,-0.462 0.195,-0.477C0.212,-0.491 0.231,-0.503 0.253,-0.512C0.274,-0.521 0.297,-0.525 0.321,-0.525Z" style="fill-rule:nonzero;"/>
        </g>
        <g transform="matrix(12,0,0,12,152.811,80.9589)">
            <path d="M0.292,0.01C0.242,0.01 0.199,0.003 0.162,-0.012C0.124,-0.027 0.088,-0.05 0.054,-0.082C0.049,-0.086 0.045,-0.091 0.042,-0.097C0.039,-0.103 0.038,-0.109 0.038,-0.116C0.038,-0.126 0.041,-0.136 0.049,-0.144C0.057,-0.152 0.067,-0.157 0.078,-0.157C0.087,-0.157 0.095,-0.153 0.103,-0.146C0.129,-0.12 0.157,-0.101 0.188,-0.088C0.218,-0.074 0.252,-0.068 0.29,-0.068C0.319,-0.068 0.345,-0.072 0.369,-0.082C0.393,-0.091 0.412,-0.104 0.426,-0.121C0.44,-0.137 0.447,-0.157 0.447,-0.179C0.446,-0.206 0.439,-0.228 0.424,-0.245C0.409,-0.262 0.388,-0.277 0.361,-0.288C0.335,-0.3 0.304,-0.31 0.27,-0.318C0.239,-0.325 0.211,-0.334 0.186,-0.345C0.16,-0.355 0.138,-0.368 0.119,-0.384C0.1,-0.4 0.085,-0.419 0.075,-0.441C0.065,-0.463 0.06,-0.49 0.06,-0.52C0.06,-0.558 0.07,-0.591 0.09,-0.62C0.11,-0.648 0.137,-0.67 0.173,-0.686C0.208,-0.702 0.249,-0.71 0.295,-0.71C0.335,-0.71 0.374,-0.703 0.41,-0.69C0.447,-0.677 0.476,-0.658 0.498,-0.635C0.511,-0.622 0.518,-0.61 0.518,-0.598C0.518,-0.588 0.513,-0.579 0.505,-0.571C0.497,-0.562 0.488,-0.558 0.477,-0.558C0.469,-0.558 0.463,-0.561 0.457,-0.566C0.446,-0.578 0.431,-0.59 0.414,-0.6C0.396,-0.61 0.377,-0.618 0.357,-0.624C0.336,-0.63 0.315,-0.633 0.295,-0.633C0.264,-0.633 0.237,-0.628 0.214,-0.619C0.191,-0.61 0.172,-0.597 0.16,-0.581C0.147,-0.565 0.14,-0.546 0.14,-0.523C0.14,-0.498 0.147,-0.477 0.162,-0.461C0.177,-0.444 0.196,-0.431 0.221,-0.421C0.246,-0.41 0.273,-0.401 0.303,-0.393C0.335,-0.385 0.365,-0.375 0.393,-0.365C0.421,-0.355 0.445,-0.342 0.465,-0.327C0.485,-0.311 0.501,-0.292 0.512,-0.268C0.523,-0.245 0.528,-0.216 0.528,-0.181C0.528,-0.144 0.518,-0.111 0.497,-0.083C0.476,-0.054 0.448,-0.031 0.412,-0.015C0.377,0.001 0.337,0.01 0.292,0.01Z" style="fill-rule:nonzero;"/>
        </g>
        <g transform="matrix(12,0,0,12,159.693,80.9589)">
            <path d="M0.313,0.01C0.259,0.01 0.213,-0.001 0.173,-0.024C0.133,-0.046 0.101,-0.077 0.079,-0.117C0.057,-0.157 0.046,-0.203 0.046,-0.255C0.046,-0.313 0.057,-0.362 0.081,-0.403C0.103,-0.444 0.133,-0.475 0.17,-0.497C0.207,-0.519 0.246,-0.53 0.288,-0.53C0.319,-0.53 0.348,-0.524 0.377,-0.513C0.405,-0.501 0.431,-0.485 0.453,-0.463C0.475,-0.441 0.493,-0.415 0.506,-0.385C0.519,-0.355 0.526,-0.321 0.527,-0.284C0.527,-0.273 0.523,-0.264 0.515,-0.257C0.507,-0.25 0.497,-0.246 0.487,-0.246L0.092,-0.246L0.074,-0.315L0.459,-0.315L0.443,-0.301L0.443,-0.323C0.44,-0.35 0.431,-0.374 0.416,-0.394C0.4,-0.413 0.381,-0.428 0.358,-0.439C0.336,-0.45 0.312,-0.455 0.288,-0.455C0.268,-0.455 0.248,-0.451 0.228,-0.444C0.208,-0.437 0.191,-0.426 0.175,-0.41C0.159,-0.395 0.147,-0.375 0.137,-0.35C0.128,-0.325 0.123,-0.296 0.123,-0.261C0.123,-0.222 0.131,-0.188 0.147,-0.159C0.162,-0.129 0.184,-0.106 0.212,-0.089C0.24,-0.072 0.273,-0.064 0.31,-0.064C0.333,-0.064 0.354,-0.067 0.371,-0.073C0.388,-0.079 0.403,-0.086 0.416,-0.095C0.428,-0.104 0.439,-0.114 0.448,-0.123C0.456,-0.129 0.465,-0.132 0.473,-0.132C0.483,-0.132 0.491,-0.129 0.497,-0.122C0.504,-0.115 0.507,-0.107 0.507,-0.098C0.507,-0.087 0.502,-0.077 0.491,-0.068C0.472,-0.047 0.447,-0.029 0.415,-0.013C0.383,0.002 0.349,0.01 0.313,0.01Z" style="fill-rule:nonzero;"/>
        </g>
        <g transform="matrix(12,0,0,12,166.569,80.9589)">
            <path d="M0.114,-0C0.102,-0 0.093,-0.004 0.085,-0.012C0.078,-0.02 0.074,-0.029 0.074,-0.041L0.074,-0.477C0.074,-0.488 0.078,-0.497 0.086,-0.505C0.093,-0.513 0.103,-0.517 0.114,-0.517C0.126,-0.517 0.135,-0.513 0.143,-0.505C0.15,-0.497 0.154,-0.488 0.154,-0.477L0.154,-0.345L0.142,-0.366C0.146,-0.387 0.153,-0.407 0.163,-0.426C0.173,-0.446 0.187,-0.463 0.203,-0.479C0.219,-0.495 0.237,-0.507 0.258,-0.516C0.279,-0.525 0.301,-0.53 0.326,-0.53C0.341,-0.53 0.354,-0.527 0.366,-0.52C0.378,-0.513 0.385,-0.503 0.385,-0.49C0.385,-0.476 0.381,-0.466 0.374,-0.459C0.366,-0.452 0.358,-0.448 0.349,-0.449C0.34,-0.448 0.332,-0.45 0.324,-0.454C0.316,-0.458 0.306,-0.46 0.294,-0.46C0.277,-0.46 0.261,-0.455 0.244,-0.446C0.228,-0.437 0.213,-0.424 0.199,-0.408C0.185,-0.391 0.174,-0.372 0.166,-0.351C0.158,-0.33 0.154,-0.308 0.154,-0.284L0.154,-0.041C0.154,-0.029 0.15,-0.02 0.143,-0.012C0.135,-0.004 0.125,-0 0.114,-0Z" style="fill-rule:nonzero;"/>
        </g>
        <g transform="matrix(12,0,0,12,171.981,80.9589)">
            <path d="M0.074,-0.526C0.082,-0.526 0.09,-0.524 0.097,-0.52C0.104,-0.515 0.109,-0.509 0.113,-0.501L0.279,-0.111L0.263,-0.103L0.432,-0.5C0.439,-0.518 0.451,-0.526 0.469,-0.526C0.478,-0.526 0.487,-0.522 0.495,-0.516C0.502,-0.509 0.506,-0.501 0.506,-0.491C0.506,-0.487 0.505,-0.483 0.504,-0.479C0.503,-0.476 0.502,-0.472 0.501,-0.47L0.308,-0.026C0.301,-0.009 0.289,-0.001 0.273,-0C0.264,0.001 0.256,-0.001 0.249,-0.005C0.241,-0.01 0.235,-0.017 0.232,-0.026L0.039,-0.469C0.038,-0.471 0.037,-0.474 0.036,-0.478C0.035,-0.481 0.034,-0.485 0.034,-0.49C0.034,-0.498 0.038,-0.506 0.045,-0.514C0.051,-0.522 0.061,-0.526 0.074,-0.526Z" style="fill-rule:nonzero;"/>
        </g>
        <g transform="matrix(12,0,0,12,178.461,80.9589)">
            <path d="M0.151,-0.041C0.151,-0.03 0.147,-0.02 0.14,-0.012C0.132,-0.004 0.122,-0 0.111,-0C0.099,-0 0.089,-0.004 0.082,-0.012C0.075,-0.02 0.071,-0.03 0.071,-0.041L0.071,-0.485C0.071,-0.496 0.075,-0.506 0.083,-0.514C0.09,-0.521 0.1,-0.525 0.111,-0.525C0.122,-0.525 0.132,-0.521 0.14,-0.514C0.147,-0.506 0.151,-0.496 0.151,-0.485L0.151,-0.041ZM0.111,-0.591C0.094,-0.591 0.082,-0.594 0.074,-0.601C0.066,-0.608 0.062,-0.618 0.062,-0.632L0.062,-0.646C0.062,-0.66 0.066,-0.67 0.075,-0.677C0.084,-0.684 0.096,-0.687 0.112,-0.687C0.128,-0.687 0.14,-0.684 0.148,-0.677C0.156,-0.67 0.16,-0.66 0.16,-0.646L0.16,-0.632C0.16,-0.618 0.156,-0.608 0.148,-0.601C0.139,-0.594 0.127,-0.591 0.111,-0.591Z" style="fill-rule:nonzero;"/>
        </g>
        <g transform="matrix(12,0,0,12,181.113,80.9589)">
            <path d="M0.304,-0.53C0.337,-0.53 0.368,-0.526 0.396,-0.519C0.423,-0.512 0.444,-0.502 0.461,-0.489C0.476,-0.476 0.485,-0.462 0.485,-0.446C0.485,-0.437 0.482,-0.428 0.476,-0.421C0.47,-0.413 0.462,-0.409 0.452,-0.409C0.443,-0.409 0.435,-0.41 0.43,-0.414C0.424,-0.417 0.419,-0.422 0.414,-0.427C0.409,-0.432 0.402,-0.437 0.393,-0.441C0.385,-0.445 0.373,-0.449 0.358,-0.452C0.343,-0.455 0.327,-0.456 0.312,-0.456C0.275,-0.456 0.243,-0.447 0.215,-0.43C0.187,-0.413 0.166,-0.389 0.15,-0.36C0.134,-0.331 0.126,-0.297 0.126,-0.26C0.126,-0.223 0.134,-0.189 0.149,-0.16C0.164,-0.13 0.186,-0.107 0.213,-0.09C0.24,-0.073 0.272,-0.064 0.308,-0.064C0.331,-0.064 0.35,-0.066 0.364,-0.07C0.378,-0.074 0.389,-0.078 0.399,-0.084C0.411,-0.09 0.42,-0.097 0.426,-0.104C0.432,-0.11 0.441,-0.114 0.452,-0.114C0.463,-0.114 0.472,-0.11 0.478,-0.103C0.484,-0.096 0.488,-0.087 0.488,-0.076C0.488,-0.064 0.479,-0.051 0.463,-0.038C0.446,-0.024 0.423,-0.013 0.395,-0.004C0.367,0.005 0.335,0.01 0.299,0.01C0.248,0.01 0.204,-0.002 0.166,-0.026C0.128,-0.049 0.098,-0.081 0.078,-0.122C0.056,-0.163 0.046,-0.209 0.046,-0.26C0.046,-0.311 0.057,-0.356 0.079,-0.397C0.1,-0.438 0.13,-0.47 0.169,-0.494C0.208,-0.518 0.253,-0.53 0.304,-0.53Z" style="fill-rule:nonzero;"/>
        </g>
        <g transform="matrix(12,0,0,12,187.335,80.9589)">
            <path d="M0.313,0.01C0.259,0.01 0.213,-0.001 0.173,-0.024C0.133,-0.046 0.101,-0.077 0.079,-0.117C0.057,-0.157 0.046,-0.203 0.046,-0.255C0.046,-0.313 0.057,-0.362 0.081,-0.403C0.103,-0.444 0.133,-0.475 0.17,-0.497C0.207,-0.519 0.246,-0.53 0.288,-0.53C0.319,-0.53 0.348,-0.524 0.377,-0.513C0.405,-0.501 0.431,-0.485 0.453,-0.463C0.475,-0.441 0.493,-0.415 0.506,-0.385C0.519,-0.355 0.526,-0.321 0.527,-0.284C0.527,-0.273 0.523,-0.264 0.515,-0.257C0.507,-0.25 0.497,-0.246 0.487,-0.246L0.092,-0.246L0.074,-0.315L0.459,-0.315L0.443,-0.301L0.443,-0.323C0.44,-0.35 0.431,-0.374 0.416,-0.394C0.4,-0.413 0.381,-0.428 0.358,-0.439C0.336,-0.45 0.312,-0.455 0.288,-0.455C0.268,-0.455 0.248,-0.451 0.228,-0.444C0.208,-0.437 0.191,-0.426 0.175,-0.41C0.159,-0.395 0.147,-0.375 0.137,-0.35C0.128,-0.325 0.123,-0.296 0.123,-0.261C0.123,-0.222 0.131,-0.188 0.147,-0.159C0.162,-0.129 0.184,-0.106 0.212,-0.089C0.24,-0.072 0.273,-0.064 0.31,-0.064C0.333,-0.064 0.354,-0.067 0.371,-0.073C0.388,-0.079 0.403,-0.086 0.416,-0.095C0.428,-0.104 0.439,-0.114 0.448,-0.123C0.456,-0.129 0.465,-0.132 0.473,-0.132C0.483,-0.132 0.491,-0.129 0.497,-0.122C0.504,-0.115 0.507,-0.107 0.507,-0.098C0.507,-0.087 0.502,-0.077 0.491,-0.068C0.472,-0.047 0.447,-0.029 0.415,-0.013C0.383,0.002 0.349,0.01 0.313,0.01Z" style="fill-rule:nonzero;"/>
        </g>
        <g transform="matrix(12,0,0,12,194.211,80.9589)">
            <path d="M0.045,-0.082C0.039,-0.09 0.036,-0.099 0.037,-0.109C0.037,-0.119 0.043,-0.128 0.054,-0.135C0.061,-0.14 0.068,-0.142 0.077,-0.141C0.086,-0.14 0.094,-0.136 0.102,-0.128C0.12,-0.106 0.142,-0.089 0.166,-0.076C0.19,-0.063 0.219,-0.056 0.254,-0.056C0.27,-0.056 0.286,-0.059 0.302,-0.064C0.318,-0.069 0.332,-0.077 0.343,-0.088C0.354,-0.1 0.359,-0.115 0.359,-0.135C0.359,-0.153 0.353,-0.168 0.342,-0.179C0.331,-0.19 0.316,-0.2 0.298,-0.207C0.28,-0.214 0.26,-0.22 0.239,-0.225C0.217,-0.231 0.195,-0.238 0.174,-0.245C0.153,-0.253 0.134,-0.262 0.117,-0.274C0.099,-0.286 0.086,-0.3 0.076,-0.318C0.065,-0.336 0.06,-0.357 0.06,-0.383C0.06,-0.413 0.068,-0.439 0.085,-0.461C0.101,-0.483 0.123,-0.5 0.15,-0.512C0.178,-0.524 0.208,-0.53 0.241,-0.53C0.259,-0.53 0.279,-0.528 0.299,-0.523C0.319,-0.519 0.339,-0.511 0.359,-0.501C0.378,-0.491 0.395,-0.477 0.41,-0.459C0.416,-0.452 0.419,-0.444 0.42,-0.434C0.42,-0.424 0.416,-0.415 0.407,-0.407C0.4,-0.402 0.392,-0.399 0.383,-0.4C0.374,-0.4 0.366,-0.404 0.36,-0.41C0.346,-0.427 0.328,-0.44 0.307,-0.449C0.286,-0.458 0.263,-0.462 0.238,-0.462C0.222,-0.462 0.206,-0.46 0.191,-0.455C0.175,-0.45 0.162,-0.442 0.152,-0.431C0.142,-0.42 0.137,-0.405 0.137,-0.386C0.137,-0.368 0.143,-0.353 0.155,-0.342C0.166,-0.331 0.182,-0.321 0.201,-0.314C0.22,-0.307 0.242,-0.3 0.265,-0.294C0.286,-0.289 0.306,-0.282 0.326,-0.275C0.346,-0.268 0.364,-0.259 0.38,-0.248C0.396,-0.236 0.408,-0.222 0.418,-0.204C0.427,-0.187 0.432,-0.165 0.432,-0.138C0.432,-0.107 0.423,-0.08 0.406,-0.058C0.388,-0.036 0.365,-0.019 0.337,-0.008C0.309,0.004 0.279,0.01 0.246,0.01C0.209,0.01 0.173,0.003 0.137,-0.011C0.101,-0.025 0.071,-0.048 0.045,-0.082Z" style="fill-rule:nonzero;"/>
        </g>
    </g>
</svg>
